<svg xmlns="http://www.w3.org/2000/svg" viewBox="0 0 64 64" width="64" height="64" role="img" aria-label="Rogers Hydraulic">
  <title>Rogers Hydraulic</title>
  <rect width="64" height="64" rx="10.24" fill="#14181C"/><rect x="3.84" y="3.84" width="56.32" height="56.32" rx="6.4" fill="none" stroke="#D3FF00" stroke-width="3.52"/><path d="M16.68 46.58L9.58 46.58L9.58 14.44L18.43 14.44Q21.68 14.44 24.06 15.16Q26.44 15.87 27.77 17.72Q29.10 19.56 29.10 22.93Q29.10 24.92 28.79 26.46Q28.47 28.01 27.62 29.14Q26.76 30.27 25.18 31.03L29.58 46.58L22.24 46.58L18.71 32.18L16.68 32.18L16.68 46.58M16.68 19.20L16.68 28.09L18.67 28.09Q20.18 28.09 21.01 27.56Q21.84 27.02 22.18 26.01Q22.52 25 22.52 23.57Q22.52 21.50 21.76 20.35Q21.01 19.20 18.98 19.20" fill="#F4F4F1"/><path d="M42.20 46.58L35.10 46.58L35.10 14.44L42.20 14.44L42.20 27.46L47.20 27.46L47.20 14.44L54.30 14.44L54.30 46.58L47.20 46.58L47.20 32.54L42.20 32.54" fill="#D3FF00"/>
</svg>
