<svg xmlns="http://www.w3.org/2000/svg" viewBox="0 0 120 120" width="120" height="120" role="img" aria-label="Rogers Hydraulic">
  <title>Rogers Hydraulic</title>
  <rect width="120" height="120" rx="19.2" fill="#14181C"/><rect x="7.199999999999999" y="7.199999999999999" width="105.6" height="105.6" rx="12" fill="none" stroke="#D3FF00" stroke-width="6.6"/><path d="M31.28 87.34L17.96 87.34L17.96 27.08L34.56 27.08Q40.66 27.08 45.12 28.42Q49.58 29.76 52.08 33.22Q54.57 36.68 54.57 43Q54.57 46.72 53.97 49.62Q53.38 52.52 51.78 54.64Q50.18 56.76 47.20 58.18L55.46 87.34L41.70 87.34L35.08 60.33L31.28 60.33L31.28 87.34M31.28 36.01L31.28 52.67L35 52.67Q37.83 52.67 39.39 51.67Q40.95 50.66 41.59 48.77Q42.22 46.87 42.22 44.19Q42.22 40.32 40.80 38.16Q39.39 36.01 35.60 36.01" fill="#F4F4F1"/><path d="M79.12 87.34L65.80 87.34L65.80 27.08L79.12 27.08L79.12 51.48L88.50 51.48L88.50 27.08L101.81 27.08L101.81 87.34L88.50 87.34L88.50 61L79.12 61" fill="#D3FF00"/>
</svg>
