<svg xmlns="http://www.w3.org/2000/svg" viewBox="0 0 453 264" role="img" aria-label="Rogers Hydraulic and Equipment Services">
  <title>Rogers Hydraulic &amp; Equipment Services</title>
  <g transform="translate(161.5,12) scale(1.3)"><rect x="0" y="0" width="100" height="100" rx="15" fill="#F4F4F1" stroke="#1E2329" stroke-width="4.5"/>
    <g fill="#1E2329">
      <rect x="25" y="22" width="12" height="56"/>
      <rect x="25" y="22" width="34" height="12"/>
      <rect x="47" y="22" width="12" height="34"/>
      <rect x="25" y="44" width="34" height="12"/>
      <polygon points="39,54 51,54 67,78 55,78"/>
      <polygon points="74,70 68.5,60.5 57.5,60.5 52,70 57.5,79.5 68.5,79.5"/>
    </g>
    <circle cx="63" cy="70" r="4.2" fill="#D3FF00"/></g>
  <path d="M30.48 184Q29.82 184 29.64 183.40L25.56 167.50Q25.50 167.26 25.26 167.26L24.36 167.26Q24.06 167.26 24.06 167.56L24.06 183.28Q24.06 183.58 23.85 183.79Q23.64 184 23.34 184L14.82 184Q14.52 184 14.31 183.79Q14.10 183.58 14.10 183.28L14.10 142.72Q14.10 142.42 14.31 142.21Q14.52 142 14.82 142L27.72 142Q31.20 142 33.90 143.65Q36.60 145.30 38.07 148.27Q39.54 151.24 39.54 155.02Q39.54 158.38 38.31 161.05Q37.08 163.72 34.86 165.34Q34.74 165.40 34.68 165.49Q34.62 165.58 34.68 165.70L39.84 183.16L39.90 183.40Q39.90 184 39.24 184L30.48 184M24.36 150.52Q24.06 150.52 24.06 150.82L24.06 159.34Q24.06 159.64 24.36 159.64L26.04 159.64Q27.66 159.64 28.62 158.44Q29.58 157.24 29.58 155.14Q29.58 152.92 28.62 151.72Q27.66 150.52 26.04 150.52 M55.50 184.48Q49.68 184.48 46.23 181.12Q42.78 177.76 42.78 172.06L42.78 153.94Q42.78 148.30 46.23 144.91Q49.68 141.52 55.50 141.52Q61.26 141.52 64.77 144.91Q68.28 148.30 68.28 153.94L68.28 172.06Q68.28 177.76 64.77 181.12Q61.26 184.48 55.50 184.48M55.50 175.96Q56.82 175.96 57.57 175.03Q58.32 174.10 58.32 172.48L58.32 153.52Q58.32 151.90 57.57 150.97Q56.82 150.04 55.50 150.04Q54.18 150.04 53.46 150.97Q52.74 151.90 52.74 153.52L52.74 172.48Q52.74 174.10 53.46 175.03Q54.18 175.96 55.50 175.96 M84.36 184.48Q78.66 184.48 75.24 181.27Q71.82 178.06 71.82 172.66L71.82 153.28Q71.82 147.88 75.24 144.70Q78.66 141.52 84.36 141.52Q90.06 141.52 93.51 144.76Q96.96 148 96.96 153.40L96.96 155.62Q96.96 155.92 96.75 156.13Q96.54 156.34 96.24 156.34L87.72 156.34Q87.42 156.34 87.21 156.13QNaN 155.92 NaN 155.62LNaN 153.28QNaN 151.84 86.28 150.94Q85.56 150.04 84.36 150.04Q83.22 150.04 82.50 150.94Q81.78 151.84 81.78 153.28L81.78 172.72Q81.78 174.16 82.50 175.06Q83.22 175.96 84.36 175.96Q85.56 175.96 86.28 175.06QNaN 174.16 NaN 172.72LNaN 168.88QNaN 168.58 86.70 168.58L85.14 168.58Q84.84 168.58 84.63 168.37Q84.42 168.16 84.42 167.86L84.42 161.50Q84.42 161.20 84.63 160.99Q84.84 160.78 85.14 160.78L96.24 160.78Q96.54 160.78 96.75 160.99Q96.96 161.20 96.96 161.50L96.96 172.66Q96.96 178.06 93.51 181.27Q90.06 184.48 84.36 184.48 M124.02 149.80Q124.02 150.10 123.81 150.31Q123.60 150.52 123.30 150.52L111.24 150.52Q110.94 150.52 110.94 150.82L110.94 158.38Q110.94 158.68 111.24 158.68L117.84 158.68Q118.14 158.68 118.35 158.89Q118.56 159.10 118.56 159.40L118.56 166.54Q118.56 166.84 118.35 167.05Q118.14 167.26 117.84 167.26L111.24 167.26Q110.94 167.26 110.94 167.56L110.94 175.18Q110.94 175.48 111.24 175.48L123.30 175.48Q123.60 175.48 123.81 175.69Q124.02 175.90 124.02 176.20L124.02 183.28Q124.02 183.58 123.81 183.79Q123.60 184 123.30 184L101.70 184Q101.40 184 101.19 183.79Q100.98 183.58 100.98 183.28L100.98 142.72Q100.98 142.42 101.19 142.21Q101.40 142 101.70 142L123.30 142Q123.60 142 123.81 142.21Q124.02 142.42 124.02 142.72 M144.12 184Q143.46 184 143.28 183.40L139.20 167.50Q139.14 167.26 138.90 167.26L138 167.26Q137.70 167.26 137.70 167.56L137.70 183.28Q137.70 183.58 137.49 183.79Q137.28 184 136.98 184L128.46 184Q128.16 184 127.95 183.79Q127.74 183.58 127.74 183.28L127.74 142.72Q127.74 142.42 127.95 142.21Q128.16 142 128.46 142L141.36 142Q144.84 142 147.54 143.65Q150.24 145.30 151.71 148.27Q153.18 151.24 153.18 155.02Q153.18 158.38 151.95 161.05Q150.72 163.72 148.50 165.34Q148.38 165.40 148.32 165.49Q148.26 165.58 148.32 165.70L153.48 183.16L153.54 183.40Q153.54 184 152.88 184L144.12 184M138 150.52Q137.70 150.52 137.70 150.82L137.70 159.34Q137.70 159.64 138 159.64L139.68 159.64Q141.30 159.64 142.26 158.44Q143.22 157.24 143.22 155.14Q143.22 152.92 142.26 151.72Q141.30 150.52 139.68 150.52 M168.60 184.48Q164.94 184.48 162.18 183.07Q159.42 181.66 157.89 179.11Q156.36 176.56 156.36 173.32L156.36 171.46Q156.36 171.16 156.57 170.95Q156.78 170.74 157.08 170.74L165.48 170.74Q165.78 170.74 165.99 170.95Q166.20 171.16 166.20 171.46L166.20 172.84Q166.20 174.28 166.89 175.12Q167.58 175.96 168.66 175.96Q169.74 175.96 170.43 175.15Q171.12 174.34 171.12 173.08Q171.12 171.70 170.04 170.59Q168.96 169.48 165.72 167.14Q162.72 164.98 160.80 163.27Q158.88 161.56 157.50 159.01Q156.12 156.46 156.12 153.10Q156.12 149.68 157.65 147.04Q159.18 144.40 161.97 142.96Q164.76 141.52 168.36 141.52Q172.02 141.52 174.81 142.99Q177.60 144.46 179.13 147.13Q180.66 149.80 180.66 153.28L180.66 154.72Q180.66 155.02 180.45 155.23Q180.24 155.44 179.94 155.44L171.60 155.44Q171.30 155.44 171.09 155.23Q170.88 155.02 170.88 154.72L170.88 153.04Q170.88 151.72 170.16 150.88Q169.44 150.04 168.36 150.04Q167.28 150.04 166.62 150.88Q165.96 151.72 165.96 153.10Q165.96 154.60 166.98 155.80Q168 157 171.12 159.28Q174.90 162.10 176.82 163.84Q178.74 165.58 179.82 167.71Q180.90 169.84 180.90 172.72Q180.90 178.12 177.51 181.30Q174.12 184.48 168.60 184.48  M211.62 142.72Q211.62 142.42 211.83 142.21Q212.04 142 212.34 142L220.86 142Q221.16 142 221.37 142.21Q221.58 142.42 221.58 142.72L221.58 183.28Q221.58 183.58 221.37 183.79Q221.16 184 220.86 184L212.34 184Q212.04 184 211.83 183.79Q211.62 183.58 211.62 183.28L211.62 167.56Q211.62 167.26 211.32 167.26L207 167.26Q206.70 167.26 206.70 167.56L206.70 183.28Q206.70 183.58 206.49 183.79Q206.28 184 205.98 184L197.46 184Q197.16 184 196.95 183.79Q196.74 183.58 196.74 183.28L196.74 142.72Q196.74 142.42 196.95 142.21Q197.16 142 197.46 142L205.98 142Q206.28 142 206.49 142.21Q206.70 142.42 206.70 142.72L206.70 158.38Q206.70 158.68 207 158.68L211.32 158.68Q211.62 158.68 211.62 158.38 M234.36 183.88Q234.06 183.88 233.85 183.67Q233.64 183.46 233.64 183.16L233.64 168.40L233.58 168.04L225.18 142.84Q225.12 142.72 225.12 142.54Q225.12 142 225.72 142L234.72 142Q235.32 142 235.50 142.66L238.50 155.86Q238.56 156.10 238.68 156.10Q238.80 156.10 238.86 155.86L241.86 142.66Q242.04 142 242.64 142L251.64 142Q252 142 252.15 142.21Q252.30 142.42 252.18 142.84L243.66 168.04L243.60 168.40L243.60 183.16Q243.60 183.46 243.39 183.67Q243.18 183.88 242.88 183.88 M256.56 184Q256.26 184 256.05 183.79Q255.84 183.58 255.84 183.28L255.84 142.72Q255.84 142.42 256.05 142.21Q256.26 142 256.56 142L268.02 142Q273.78 142 277.26 145.24Q280.74 148.48 280.74 153.82L280.74 172.18Q280.74 177.52 277.26 180.76Q273.78 184 268.02 184L256.56 184M265.80 175.18Q265.80 175.48 266.10 175.48L267.78 175.42Q269.04 175.36 269.88 174.31Q270.72 173.26 270.78 171.52L270.78 154.48Q270.78 152.68 269.94 151.60Q269.10 150.52 267.72 150.52L266.10 150.52Q265.80 150.52 265.80 150.82 M301.32 184Q300.66 184 300.48 183.40L296.40 167.50Q296.34 167.26 296.10 167.26L295.20 167.26Q294.90 167.26 294.90 167.56L294.90 183.28Q294.90 183.58 294.69 183.79Q294.48 184 294.18 184L285.66 184Q285.36 184 285.15 183.79Q284.94 183.58 284.94 183.28L284.94 142.72Q284.94 142.42 285.15 142.21Q285.36 142 285.66 142L298.56 142Q302.04 142 304.74 143.65Q307.44 145.30 308.91 148.27Q310.38 151.24 310.38 155.02Q310.38 158.38 309.15 161.05Q307.92 163.72 305.70 165.34Q305.58 165.40 305.52 165.49Q305.46 165.58 305.52 165.70L310.68 183.16L310.74 183.40Q310.74 184 310.08 184L301.32 184M295.20 150.52Q294.90 150.52 294.90 150.82L294.90 159.34Q294.90 159.64 295.20 159.64L296.88 159.64Q298.50 159.64 299.46 158.44Q300.42 157.24 300.42 155.14Q300.42 152.92 299.46 151.72Q298.50 150.52 296.88 150.52 M332.28 184Q331.56 184 331.50 183.34L330.72 178.12Q330.72 177.82 330.36 177.82L323.88 177.82Q323.52 177.82 323.52 178.12L322.80 183.34Q322.74 184 322.02 184L313.50 184Q312.72 184 312.90 183.22L321.60 142.66Q321.72 142 322.38 142L332.16 142Q332.82 142 332.94 142.66L341.58 183.22L341.64 183.46Q341.64 184 340.98 184L332.28 184M324.84 169.84Q324.84 170.14 325.08 170.14L329.10 170.14Q329.34 170.14 329.34 169.84L327.18 156.16Q327.12 155.92 NaN 155.92Q326.88 155.92 326.82 156.16 M357.18 184.48Q353.46 184.48 350.64 182.89Q347.82 181.30 346.26 178.42Q344.70 175.54 344.70 171.76L344.70 142.72Q344.70 142.42 344.91 142.21Q345.12 142 345.42 142L353.94 142Q354.24 142 354.45 142.21Q354.66 142.42 354.66 142.72L354.66 172.72Q354.66 174.16 355.35 175.06Q356.04 175.96 357.18 175.96Q358.32 175.96 359.01 175.06Q359.70 174.16 359.70 172.72L359.70 142.72Q359.70 142.42 359.91 142.21Q360.12 142 360.42 142L368.94 142Q369.24 142 369.45 142.21Q369.66 142.42 369.66 142.72L369.66 171.76Q369.66 175.54 368.10 178.42Q366.54 181.30 363.72 182.89Q360.90 184.48 357.18 184.48 M374.70 184Q374.40 184 374.19 183.79Q373.98 183.58 373.98 183.28L373.98 142.72Q373.98 142.42 374.19 142.21Q374.40 142 374.70 142L383.22 142Q383.52 142 383.73 142.21Q383.94 142.42 383.94 142.72L383.94 175.18Q383.94 175.48 384.24 175.48L396.48 175.48Q396.78 175.48 396.99 175.69Q397.20 175.90 397.20 176.20L397.20 183.28Q397.20 183.58 396.99 183.79Q396.78 184 396.48 184 M401.22 184Q400.92 184 400.71 183.79Q400.50 183.58 400.50 183.28L400.50 142.72Q400.50 142.42 400.71 142.21Q400.92 142 401.22 142L409.74 142Q410.04 142 410.25 142.21Q410.46 142.42 410.46 142.72L410.46 183.28Q410.46 183.58 410.25 183.79Q410.04 184 409.74 184 M426.96 184.48Q421.26 184.48 417.84 181.12Q414.42 177.76 414.42 172.18L414.42 153.76Q414.42 148.12 417.84 144.82Q421.26 141.52 426.96 141.52Q432.66 141.52 436.11 144.82Q439.56 148.12 439.56 153.76L439.56 154.30Q439.56 154.60 439.35 154.81Q439.14 155.02 438.84 155.02L430.32 155.38Q429.60 155.38 429.60 154.66L429.60 153.04Q429.60 151.66 428.88 150.85Q428.16 150.04 426.96 150.04Q425.82 150.04 425.10 150.85Q424.38 151.66 424.38 153.04L424.38 173.02Q424.38 174.34 425.10 175.15Q425.82 175.96 426.96 175.96Q428.16 175.96 428.88 175.15Q429.60 174.34 429.60 173.02L429.60 171.28Q429.60 170.98 429.81 170.77Q430.02 170.56 430.32 170.56L438.84 170.92Q439.14 170.92 439.35 171.13Q439.56 171.34 439.56 171.64L439.56 172.18Q439.56 177.76 436.11 181.12Q432.66 184.48 426.96 184.48" fill="#1E2329"/>
  <path d="M104.46 198.37Q104.46 198.47 104.40 198.53Q104.33 198.60 104.24 198.60L100.13 198.60Q100.04 198.60 100.04 198.69L100.04 202.29Q100.04 202.38 100.13 202.38L102.56 202.38Q102.66 202.38 102.72 202.45Q102.79 202.51 102.79 202.61L102.79 204.07Q102.79 204.17 102.72 204.23Q102.66 204.30 102.56 204.30L100.13 204.30Q100.04 204.30 100.04 204.40L100.04 208Q100.04 208.10 100.13 208.10L104.24 208.10Q104.33 208.10 104.40 208.17Q104.46 208.23 104.46 208.33L104.46 209.77Q104.46 209.87 104.40 209.93Q104.33 210 104.24 210L98.06 210Q97.97 210 97.90 209.93Q97.83 209.87 97.83 209.77L97.83 196.93Q97.83 196.83 97.90 196.77Q97.97 196.70 98.06 196.70L104.24 196.70Q104.33 196.70 104.40 196.77Q104.46 196.83 104.46 196.93 M116.22 196.55Q117.82 196.55 118.79 197.57Q119.76 198.60 119.76 200.25L119.76 206.45Q119.76 207.76 119.13 208.70Q118.50 209.64 117.40 209.98Q117.33 210 117.33 210.08L117.33 211.75Q117.33 211.84 117.26 211.91Q117.19 211.98 117.10 211.98L115.35 211.98Q115.26 211.98 115.19 211.91Q115.12 211.84 115.12 211.75L115.12 210.08Q115.12 210 115.05 209.98Q113.96 209.62 113.34 208.69Q112.71 207.76 112.71 206.45L112.71 200.25Q112.71 198.60 113.68 197.57Q114.65 196.55 116.22 196.55M117.55 206.68L117.55 200.03Q117.55 199.32 117.18 198.88Q116.81 198.45 116.22 198.45Q115.64 198.45 115.27 198.88Q114.91 199.32 114.91 200.03L114.91 206.68Q114.91 207.38 115.27 207.81Q115.64 208.25 116.22 208.25Q116.81 208.25 117.18 207.81Q117.55 207.38 117.55 206.68 M131.94 210.15Q130.30 210.15 129.32 209.10Q128.35 208.04 128.35 206.31L128.35 196.93Q128.35 196.83 128.41 196.77Q128.48 196.70 128.57 196.70L130.32 196.70Q130.42 196.70 130.48 196.77Q130.55 196.83 130.55 196.93L130.55 206.54Q130.55 207.30 130.93 207.78Q131.31 208.25 131.94 208.25Q132.56 208.25 132.94 207.78Q133.32 207.30 133.32 206.54L133.32 196.93Q133.32 196.83 133.39 196.77Q133.46 196.70 133.55 196.70L135.30 196.70Q135.40 196.70 135.46 196.77Q135.53 196.83 135.53 196.93L135.53 206.31Q135.53 208.04 134.54 209.10Q133.55 210.15 131.94 210.15 M144.57 210Q144.48 210 144.41 209.93Q144.34 209.87 144.34 209.77L144.34 196.93Q144.34 196.83 144.41 196.77Q144.48 196.70 144.57 196.70L146.32 196.70Q146.42 196.70 146.48 196.77Q146.55 196.83 146.55 196.93L146.55 209.77Q146.55 209.87 146.48 209.93Q146.42 210 146.32 210 M159.22 196.68Q160.23 196.68 161 197.18Q161.77 197.67 162.19 198.56Q162.62 199.46 162.62 200.59Q162.62 202.31 161.72 203.35Q160.82 204.40 159.34 204.40L157.72 204.40Q157.63 204.40 157.63 204.49L157.63 209.77Q157.63 209.87 157.56 209.93Q157.49 210 157.40 210L155.65 210Q155.55 210 155.49 209.93Q155.42 209.87 155.42 209.77L155.42 196.91Q155.42 196.81 155.49 196.75Q155.55 196.68 155.65 196.68L159.22 196.68M158.86 202.67Q159.56 202.67 159.99 202.12Q160.42 201.58 160.42 200.65Q160.42 199.70 159.99 199.14Q159.56 198.58 158.86 198.58L157.72 198.58Q157.63 198.58 157.63 198.68L157.63 202.57Q157.63 202.67 157.72 202.67 M176.93 196.85Q177.02 196.70 177.21 196.70L178.96 196.70Q179.06 196.70 179.12 196.77Q179.19 196.83 179.19 196.93L179.19 209.77Q179.19 209.87 179.12 209.93Q179.06 210 178.96 210L177.21 210Q177.12 210 177.05 209.93Q176.99 209.87 176.99 209.77L176.99 200.80Q176.99 200.73 176.95 200.73Q176.91 200.73 176.87 200.78L175.22 203.79Q175.12 203.94 175.05 203.94Q174.97 203.94 174.88 203.79L173.22 200.78Q173.19 200.73 173.15 200.73Q173.11 200.73 173.11 200.80L173.11 209.77Q173.11 209.87 173.04 209.93Q172.98 210 172.88 210L171.13 210Q171.04 210 170.97 209.93Q170.91 209.87 170.91 209.77L170.91 196.93Q170.91 196.83 170.97 196.77Q171.04 196.70 171.13 196.70L172.88 196.70Q173.07 196.70 173.17 196.85L175.01 200.10Q175.07 200.18 175.12 200.10 M194.66 198.37Q194.66 198.47 194.59 198.53Q194.52 198.60 194.43 198.60L190.32 198.60Q190.23 198.60 190.23 198.69L190.23 202.29Q190.23 202.38 190.32 202.38L192.76 202.38Q192.85 202.38 192.92 202.45Q192.98 202.51 192.98 202.61L192.98 204.07Q192.98 204.17 192.92 204.23Q192.85 204.30 192.76 204.30L190.32 204.30Q190.23 204.30 190.23 204.40L190.23 208Q190.23 208.10 190.32 208.10L194.43 208.10Q194.52 208.10 194.59 208.17Q194.66 208.23 194.66 208.33L194.66 209.77Q194.66 209.87 194.59 209.93Q194.52 210 194.43 210L188.25 210Q188.16 210 188.09 209.93Q188.03 209.87 188.03 209.77L188.03 196.93Q188.03 196.83 188.09 196.77Q188.16 196.70 188.25 196.70L194.43 196.70Q194.52 196.70 194.59 196.77Q194.66 196.83 194.66 196.93 M208.53 196.93Q208.53 196.83 208.59 196.77Q208.66 196.70 208.75 196.70L210.48 196.70Q210.58 196.70 210.64 196.77Q210.71 196.83 210.71 196.93L210.71 209.77Q210.71 209.87 210.64 209.93Q210.58 210 210.48 210L208.49 210Q208.30 210 208.24 209.81L205.41 201.75Q205.39 201.70 205.34 201.71Q205.30 201.72 205.30 201.77L205.32 209.77Q205.32 209.87 205.25 209.93Q205.18 210 205.09 210L203.36 210Q203.26 210 203.20 209.93Q203.13 209.87 203.13 209.77L203.13 196.93Q203.13 196.83 203.20 196.77Q203.26 196.70 203.36 196.70L205.32 196.70Q205.51 196.70 205.56 196.89L208.41 204.89Q208.43 204.95 208.48 204.94Q208.53 204.93 208.53 204.87 M226.42 196.70Q226.52 196.70 226.59 196.77Q226.65 196.83 226.65 196.93L226.65 198.37Q226.65 198.47 226.59 198.53Q226.52 198.60 226.42 198.60L224.01 198.60Q223.92 198.60 223.92 198.69L223.92 209.77Q223.92 209.87 223.85 209.93Q223.78 210 223.69 210L221.94 210Q221.84 210 221.78 209.93Q221.71 209.87 221.71 209.77L221.71 198.69Q221.71 198.60 221.62 198.60L219.34 198.60Q219.24 198.60 219.18 198.53Q219.11 198.47 219.11 198.37L219.11 196.93Q219.11 196.83 219.18 196.77Q219.24 196.70 219.34 196.70  M248.81 210.15Q247.23 210.15 246.26 209.20Q245.29 208.25 245.29 206.71L245.29 206.22Q245.29 206.12 245.36 206.06Q245.42 205.99 245.52 205.99L247.25 205.99Q247.34 205.99 247.41 206.06Q247.48 206.12 247.48 206.22L247.48 206.60Q247.48 207.34 247.85 207.80Q248.22 208.25 248.81 208.25Q249.39 208.25 249.77 207.82Q250.15 207.40 250.15 206.69Q250.15 206.20 249.95 205.84Q249.74 205.48 249.36 205.16Q248.98 204.83 248.14 204.22Q247.19 203.54 246.61 203.01Q246.03 202.48 245.64 201.73Q245.25 200.97 245.25 199.99Q245.25 198.41 246.20 197.48Q247.15 196.55 248.71 196.55Q250.29 196.55 251.26 197.53Q252.23 198.50 252.23 200.12L252.23 200.58Q252.23 200.67 252.16 200.74Q252.09 200.80 252 200.80L250.29 200.80Q250.19 200.80 250.13 200.74Q250.06 200.67 250.06 200.58L250.06 200.08Q250.06 199.34 249.69 198.89Q249.32 198.45 248.71 198.45Q248.14 198.45 247.78 198.86Q247.42 199.26 247.42 199.99Q247.42 200.67 247.81 201.15Q248.20 201.62 249.34 202.46Q250.50 203.31 251.09 203.85Q251.67 204.40 252 205.04Q252.32 205.69 252.32 206.58Q252.32 208.19 251.35 209.17Q250.38 210.15 248.81 210.15 M267.39 198.37Q267.39 198.47 267.32 198.53Q267.25 198.60 267.16 198.60L263.06 198.60Q262.96 198.60 262.96 198.69L262.96 202.29Q262.96 202.38 263.06 202.38L265.49 202.38Q265.58 202.38 265.65 202.45Q265.72 202.51 265.72 202.61L265.72 204.07Q265.72 204.17 265.65 204.23Q265.58 204.30 265.49 204.30L263.06 204.30Q262.96 204.30 262.96 204.40L262.96 208Q262.96 208.10 263.06 208.10L267.16 208.10Q267.25 208.10 267.32 208.17Q267.39 208.23 267.39 208.33L267.39 209.77Q267.39 209.87 267.32 209.93Q267.25 210 267.16 210L260.99 210Q260.89 210 260.82 209.93Q260.76 209.87 260.76 209.77L260.76 196.93Q260.76 196.83 260.82 196.77Q260.89 196.70 260.99 196.70L267.16 196.70Q267.25 196.70 267.32 196.77Q267.39 196.83 267.39 196.93 M281.13 210Q280.94 210 280.88 209.81L279.26 204.36Q279.23 204.28 279.17 204.28L278.16 204.28Q278.07 204.28 278.07 204.38L278.07 209.77Q278.07 209.87 278 209.93Q277.93 210 277.84 210L276.09 210Q276 210 275.93 209.93Q275.86 209.87 275.86 209.77L275.86 196.93Q275.86 196.83 275.93 196.77Q276 196.70 276.09 196.70L279.66 196.70Q280.67 196.70 281.44 197.18Q282.21 197.67 282.64 198.55Q283.06 199.44 283.06 200.58Q283.06 201.75 282.61 202.61Q282.15 203.46 281.33 203.90Q281.26 203.92 281.28 204.01L283.14 209.73Q283.16 209.77 283.16 209.83Q283.16 210 282.95 210L281.13 210M278.16 198.60Q278.07 198.60 278.07 198.69L278.07 202.48Q278.07 202.57 278.16 202.57L279.32 202.57Q280 202.57 280.43 202.04Q280.86 201.51 280.86 200.59Q280.86 199.68 280.43 199.14Q280 198.60 279.32 198.60 M293.93 210Q293.72 210 293.68 209.79L290.97 196.95L290.95 196.87Q290.95 196.70 291.16 196.70L293.08 196.70Q293.30 196.70 293.32 196.91L294.90 206.05Q294.92 206.10 294.96 206.10Q295 206.10 295.01 206.05L296.55 196.91Q296.57 196.70 296.80 196.70L298.66 196.70Q298.91 196.70 298.85 196.95L296.12 209.79Q296.08 210 295.87 210 M307.48 210Q307.38 210 307.32 209.93Q307.25 209.87 307.25 209.77L307.25 196.93Q307.25 196.83 307.32 196.77Q307.38 196.70 307.48 196.70L309.23 196.70Q309.32 196.70 309.39 196.77Q309.45 196.83 309.45 196.93L309.45 209.77Q309.45 209.87 309.39 209.93Q309.32 210 309.23 210 M321.69 210.15Q320.07 210.15 319.10 209.17Q318.12 208.19 318.12 206.58L318.12 200.10Q318.12 198.47 319.10 197.51Q320.07 196.55 321.69 196.55Q323.32 196.55 324.31 197.51Q325.30 198.47 325.30 200.10L325.30 200.33Q325.30 200.42 325.23 200.50Q325.17 200.58 325.07 200.58L323.31 200.65Q323.08 200.65 323.08 200.42L323.08 199.95Q323.08 199.28 322.70 198.87Q322.32 198.45 321.69 198.45Q321.08 198.45 320.70 198.87Q320.32 199.28 320.32 199.95L320.32 206.75Q320.32 207.42 320.70 207.83Q321.08 208.25 321.69 208.25Q322.32 208.25 322.70 207.83Q323.08 207.42 323.08 206.75L323.08 206.28Q323.08 206.18 323.14 206.11Q323.21 206.05 323.31 206.05L325.07 206.12Q325.17 206.12 325.23 206.19Q325.30 206.26 325.30 206.35L325.30 206.58Q325.30 208.19 324.31 209.17Q323.32 210.15 321.69 210.15 M340.50 198.37Q340.50 198.47 340.43 198.53Q340.37 198.60 340.27 198.60L336.17 198.60Q336.07 198.60 336.07 198.69L336.07 202.29Q336.07 202.38 336.17 202.38L338.60 202.38Q338.69 202.38 338.76 202.45Q338.83 202.51 338.83 202.61L338.83 204.07Q338.83 204.17 338.76 204.23Q338.69 204.30 338.60 204.30L336.17 204.30Q336.07 204.30 336.07 204.40L336.07 208Q336.07 208.10 336.17 208.10L340.27 208.10Q340.37 208.10 340.43 208.17Q340.50 208.23 340.50 208.33L340.50 209.77Q340.50 209.87 340.43 209.93Q340.37 210 340.27 210L334.10 210Q334 210 333.94 209.93Q333.87 209.87 333.87 209.77L333.87 196.93Q333.87 196.83 333.94 196.77Q334 196.70 334.10 196.70L340.27 196.70Q340.37 196.70 340.43 196.77Q340.50 196.83 340.50 196.93 M352.11 210.15Q350.53 210.15 349.56 209.20Q348.59 208.25 348.59 206.71L348.59 206.22Q348.59 206.12 348.66 206.06Q348.73 205.99 348.82 205.99L350.55 205.99Q350.65 205.99 350.71 206.06Q350.78 206.12 350.78 206.22L350.78 206.60Q350.78 207.34 351.15 207.80Q351.52 208.25 352.11 208.25Q352.70 208.25 353.08 207.82Q353.46 207.40 353.46 206.69Q353.46 206.20 353.25 205.84Q353.04 205.48 352.66 205.16Q352.28 204.83 351.44 204.22Q350.49 203.54 349.91 203.01Q349.34 202.48 348.95 201.73Q348.56 200.97 348.56 199.99Q348.56 198.41 349.51 197.48Q350.46 196.55 352.01 196.55Q353.59 196.55 354.56 197.53Q355.53 198.50 355.53 200.12L355.53 200.58Q355.53 200.67 355.46 200.74Q355.40 200.80 355.30 200.80L353.59 200.80Q353.50 200.80 353.43 200.74Q353.36 200.67 353.36 200.58L353.36 200.08Q353.36 199.34 352.99 198.89Q352.62 198.45 352.01 198.45Q351.44 198.45 351.08 198.86Q350.72 199.26 350.72 199.99Q350.72 200.67 351.11 201.15Q351.50 201.62 352.64 202.46Q353.80 203.31 354.39 203.85Q354.98 204.40 355.30 205.04Q355.62 205.69 355.62 206.58Q355.62 208.19 354.66 209.17Q353.69 210.15 352.11 210.15" fill="#6B7280"/>
  <rect x="197.5" y="224" width="58" height="4" rx="2" fill="#D3FF00"/>
</svg>
