<svg xmlns="http://www.w3.org/2000/svg" viewBox="0 0 604 130" role="img" aria-label="Rogers Hydraulic and Equipment Services">
  <title>Rogers Hydraulic &amp; Equipment Services</title>
  <g transform="translate(10,15)"><rect x="0" y="0" width="100" height="100" rx="15" fill="#14181C" stroke="#D3FF00" stroke-width="4.5"/>
    <g fill="#D3FF00">
      <rect x="25" y="22" width="12" height="56"/>
      <rect x="25" y="22" width="34" height="12"/>
      <rect x="47" y="22" width="12" height="34"/>
      <rect x="25" y="44" width="34" height="12"/>
      <polygon points="39,54 51,54 67,78 55,78"/>
      <polygon points="74,70 68.5,60.5 57.5,60.5 52,70 57.5,79.5 68.5,79.5"/>
    </g>
    <circle cx="63" cy="70" r="4.2" fill="#14181C"/></g>
  <path d="M153.71 76Q153.01 76 152.82 75.36L148.46 58.40Q148.40 58.14 148.14 58.14L147.18 58.14Q146.86 58.14 146.86 58.46L146.86 75.23Q146.86 75.55 146.64 75.78Q146.42 76 146.10 76L137.01 76Q136.69 76 136.46 75.78Q136.24 75.55 136.24 75.23L136.24 31.97Q136.24 31.65 136.46 31.42Q136.69 31.20 137.01 31.20L150.77 31.20Q154.48 31.20 157.36 32.96Q160.24 34.72 161.81 37.89Q163.38 41.06 163.38 45.09Q163.38 48.67 162.06 51.52Q160.75 54.37 158.38 56.10Q158.26 56.16 158.19 56.26Q158.13 56.35 158.19 56.48L163.70 75.10L163.76 75.36Q163.76 76 163.06 76L153.71 76M147.18 40.29Q146.86 40.29 146.86 40.61L146.86 49.70Q146.86 50.02 147.18 50.02L148.98 50.02Q150.70 50.02 151.73 48.74Q152.75 47.46 152.75 45.22Q152.75 42.85 151.73 41.57Q150.70 40.29 148.98 40.29 M180.40 76.51Q174.19 76.51 170.51 72.93Q166.83 69.34 166.83 63.26L166.83 43.94Q166.83 37.92 170.51 34.30Q174.19 30.69 180.40 30.69Q186.54 30.69 190.29 34.30Q194.03 37.92 194.03 43.94L194.03 63.26Q194.03 69.34 190.29 72.93Q186.54 76.51 180.40 76.51M180.40 67.42Q181.81 67.42 182.61 66.43Q183.41 65.44 183.41 63.71L183.41 43.49Q183.41 41.76 182.61 40.77Q181.81 39.78 180.40 39.78Q178.99 39.78 178.22 40.77Q177.46 41.76 177.46 43.49L177.46 63.71Q177.46 65.44 178.22 66.43Q178.99 67.42 180.40 67.42 M211.18 76.51Q205.10 76.51 201.46 73.09Q197.81 69.66 197.81 63.90L197.81 43.23Q197.81 37.47 201.46 34.08Q205.10 30.69 211.18 30.69Q217.26 30.69 220.94 34.14Q224.62 37.60 224.62 43.36L224.62 45.73Q224.62 46.05 224.40 46.27Q224.18 46.50 223.86 46.50L214.77 46.50Q214.45 46.50 214.22 46.27Q214 46.05 214 45.73L214 43.23Q214 41.70 213.23 40.74Q212.46 39.78 211.18 39.78Q209.97 39.78 209.20 40.74Q208.43 41.70 208.43 43.23L208.43 63.97Q208.43 65.50 209.20 66.46Q209.97 67.42 211.18 67.42Q212.46 67.42 213.23 66.46Q214 65.50 214 63.97L214 59.87Q214 59.55 213.68 59.55L212.02 59.55Q211.70 59.55 211.47 59.33Q211.25 59.10 211.25 58.78L211.25 52Q211.25 51.68 211.47 51.46Q211.70 51.23 212.02 51.23L223.86 51.23Q224.18 51.23 224.40 51.46Q224.62 51.68 224.62 52L224.62 63.90Q224.62 69.66 220.94 73.09Q217.26 76.51 211.18 76.51 M253.49 39.52Q253.49 39.84 253.26 40.06Q253.04 40.29 252.72 40.29L239.86 40.29Q239.54 40.29 239.54 40.61L239.54 48.67Q239.54 48.99 239.86 48.99L246.90 48.99Q247.22 48.99 247.44 49.22Q247.66 49.44 247.66 49.76L247.66 57.38Q247.66 57.70 247.44 57.92Q247.22 58.14 246.90 58.14L239.86 58.14Q239.54 58.14 239.54 58.46L239.54 66.59Q239.54 66.91 239.86 66.91L252.72 66.91Q253.04 66.91 253.26 67.14Q253.49 67.36 253.49 67.68L253.49 75.23Q253.49 75.55 253.26 75.78Q253.04 76 252.72 76L229.68 76Q229.36 76 229.14 75.78Q228.91 75.55 228.91 75.23L228.91 31.97Q228.91 31.65 229.14 31.42Q229.36 31.20 229.68 31.20L252.72 31.20Q253.04 31.20 253.26 31.42Q253.49 31.65 253.49 31.97 M274.93 76Q274.22 76 274.03 75.36L269.68 58.40Q269.62 58.14 269.36 58.14L268.40 58.14Q268.08 58.14 268.08 58.46L268.08 75.23Q268.08 75.55 267.86 75.78Q267.63 76 267.31 76L258.22 76Q257.90 76 257.68 75.78Q257.46 75.55 257.46 75.23L257.46 31.97Q257.46 31.65 257.68 31.42Q257.90 31.20 258.22 31.20L271.98 31.20Q275.70 31.20 278.58 32.96Q281.46 34.72 283.02 37.89Q284.59 41.06 284.59 45.09Q284.59 48.67 283.28 51.52Q281.97 54.37 279.60 56.10Q279.47 56.16 279.41 56.26Q279.34 56.35 279.41 56.48L284.91 75.10L284.98 75.36Q284.98 76 284.27 76L274.93 76M268.40 40.29Q268.08 40.29 268.08 40.61L268.08 49.70Q268.08 50.02 268.40 50.02L270.19 50.02Q271.92 50.02 272.94 48.74Q273.97 47.46 273.97 45.22Q273.97 42.85 272.94 41.57Q271.92 40.29 270.19 40.29 M301.04 76.51Q297.14 76.51 294.19 75.01Q291.25 73.50 289.62 70.78Q287.98 68.06 287.98 64.61L287.98 62.62Q287.98 62.30 288.21 62.08Q288.43 61.86 288.75 61.86L297.71 61.86Q298.03 61.86 298.26 62.08Q298.48 62.30 298.48 62.62L298.48 64.10Q298.48 65.63 299.22 66.53Q299.95 67.42 301.10 67.42Q302.26 67.42 302.99 66.56Q303.73 65.70 303.73 64.35Q303.73 62.88 302.58 61.70Q301.42 60.51 297.97 58.02Q294.77 55.71 292.72 53.89Q290.67 52.06 289.20 49.34Q287.73 46.62 287.73 43.04Q287.73 39.39 289.36 36.58Q290.99 33.76 293.97 32.22Q296.94 30.69 300.78 30.69Q304.69 30.69 307.66 32.26Q310.64 33.82 312.27 36.67Q313.90 39.52 313.90 43.23L313.90 44.77Q313.90 45.09 313.68 45.31Q313.46 45.54 313.14 45.54L304.24 45.54Q303.92 45.54 303.70 45.31Q303.47 45.09 303.47 44.77L303.47 42.98Q303.47 41.57 302.70 40.67Q301.94 39.78 300.78 39.78Q299.63 39.78 298.93 40.67Q298.22 41.57 298.22 43.04Q298.22 44.64 299.31 45.92Q300.40 47.20 303.73 49.63Q307.76 52.64 309.81 54.50Q311.86 56.35 313.01 58.62Q314.16 60.90 314.16 63.97Q314.16 69.73 310.54 73.12Q306.93 76.51 301.04 76.51  M346.93 31.97Q346.93 31.65 347.15 31.42Q347.38 31.20 347.70 31.20L356.78 31.20Q357.10 31.20 357.33 31.42Q357.55 31.65 357.55 31.97L357.55 75.23Q357.55 75.55 357.33 75.78Q357.10 76 356.78 76L347.70 76Q347.38 76 347.15 75.78Q346.93 75.55 346.93 75.23L346.93 58.46Q346.93 58.14 346.61 58.14L342 58.14Q341.68 58.14 341.68 58.46L341.68 75.23Q341.68 75.55 341.46 75.78Q341.23 76 340.91 76L331.82 76Q331.50 76 331.28 75.78Q331.06 75.55 331.06 75.23L331.06 31.97Q331.06 31.65 331.28 31.42Q331.50 31.20 331.82 31.20L340.91 31.20Q341.23 31.20 341.46 31.42Q341.68 31.65 341.68 31.97L341.68 48.67Q341.68 48.99 342 48.99L346.61 48.99Q346.93 48.99 346.93 48.67 M371.18 75.87Q370.86 75.87 370.64 75.65Q370.42 75.42 370.42 75.10L370.42 59.36L370.35 58.98L361.39 32.10Q361.33 31.97 361.33 31.78Q361.33 31.20 361.97 31.20L371.57 31.20Q372.21 31.20 372.40 31.90L375.60 45.98Q375.66 46.24 375.79 46.24Q375.92 46.24 375.98 45.98L379.18 31.90Q379.38 31.20 380.02 31.20L389.62 31.20Q390 31.20 390.16 31.42Q390.32 31.65 390.19 32.10L381.10 58.98L381.04 59.36L381.04 75.10Q381.04 75.42 380.82 75.65Q380.59 75.87 380.27 75.87 M394.86 76Q394.54 76 394.32 75.78Q394.10 75.55 394.10 75.23L394.10 31.97Q394.10 31.65 394.32 31.42Q394.54 31.20 394.86 31.20L407.09 31.20Q413.23 31.20 416.94 34.66Q420.66 38.11 420.66 43.81L420.66 63.39Q420.66 69.09 416.94 72.54Q413.23 76 407.09 76L394.86 76M404.72 66.59Q404.72 66.91 405.04 66.91L406.83 66.85Q408.18 66.78 409.07 65.66Q409.97 64.54 410.03 62.69L410.03 44.51Q410.03 42.59 409.14 41.44Q408.24 40.29 406.77 40.29L405.04 40.29Q404.72 40.29 404.72 40.61 M442.61 76Q441.90 76 441.71 75.36L437.36 58.40Q437.30 58.14 437.04 58.14L436.08 58.14Q435.76 58.14 435.76 58.46L435.76 75.23Q435.76 75.55 435.54 75.78Q435.31 76 434.99 76L425.90 76Q425.58 76 425.36 75.78Q425.14 75.55 425.14 75.23L425.14 31.97Q425.14 31.65 425.36 31.42Q425.58 31.20 425.90 31.20L439.66 31.20Q443.38 31.20 446.26 32.96Q449.14 34.72 450.70 37.89Q452.27 41.06 452.27 45.09Q452.27 48.67 450.96 51.52Q449.65 54.37 447.28 56.10Q447.15 56.16 447.09 56.26Q447.02 56.35 447.09 56.48L452.59 75.10L452.66 75.36Q452.66 76 451.95 76L442.61 76M436.08 40.29Q435.76 40.29 435.76 40.61L435.76 49.70Q435.76 50.02 436.08 50.02L437.87 50.02Q439.60 50.02 440.62 48.74Q441.65 47.46 441.65 45.22Q441.65 42.85 440.62 41.57Q439.60 40.29 437.87 40.29 M475.63 76Q474.86 76 474.80 75.30L473.97 69.73Q473.97 69.41 473.58 69.41L466.67 69.41Q466.29 69.41 466.29 69.73L465.52 75.30Q465.46 76 464.69 76L455.60 76Q454.77 76 454.96 75.17L464.24 31.90Q464.37 31.20 465.07 31.20L475.50 31.20Q476.21 31.20 476.34 31.90L485.55 75.17L485.62 75.42Q485.62 76 484.91 76L475.63 76M467.70 60.90Q467.70 61.22 467.95 61.22L472.24 61.22Q472.50 61.22 472.50 60.90L470.19 46.30Q470.13 46.05 470 46.05Q469.87 46.05 469.81 46.30 M502.19 76.51Q498.22 76.51 495.22 74.82Q492.21 73.12 490.54 70.05Q488.88 66.98 488.88 62.94L488.88 31.97Q488.88 31.65 489.10 31.42Q489.33 31.20 489.65 31.20L498.74 31.20Q499.06 31.20 499.28 31.42Q499.50 31.65 499.50 31.97L499.50 63.97Q499.50 65.50 500.24 66.46Q500.98 67.42 502.19 67.42Q503.41 67.42 504.14 66.46Q504.88 65.50 504.88 63.97L504.88 31.97Q504.88 31.65 505.10 31.42Q505.33 31.20 505.65 31.20L514.74 31.20Q515.06 31.20 515.28 31.42Q515.50 31.65 515.50 31.97L515.50 62.94Q515.50 66.98 513.84 70.05Q512.18 73.12 509.17 74.82Q506.16 76.51 502.19 76.51 M520.88 76Q520.56 76 520.34 75.78Q520.11 75.55 520.11 75.23L520.11 31.97Q520.11 31.65 520.34 31.42Q520.56 31.20 520.88 31.20L529.97 31.20Q530.29 31.20 530.51 31.42Q530.74 31.65 530.74 31.97L530.74 66.59Q530.74 66.91 531.06 66.91L544.11 66.91Q544.43 66.91 544.66 67.14Q544.88 67.36 544.88 67.68L544.88 75.23Q544.88 75.55 544.66 75.78Q544.43 76 544.11 76 M549.17 76Q548.85 76 548.62 75.78Q548.40 75.55 548.40 75.23L548.40 31.97Q548.40 31.65 548.62 31.42Q548.85 31.20 549.17 31.20L558.26 31.20Q558.58 31.20 558.80 31.42Q559.02 31.65 559.02 31.97L559.02 75.23Q559.02 75.55 558.80 75.78Q558.58 76 558.26 76 M576.62 76.51Q570.54 76.51 566.90 72.93Q563.25 69.34 563.25 63.39L563.25 43.74Q563.25 37.73 566.90 34.21Q570.54 30.69 576.62 30.69Q582.70 30.69 586.38 34.21Q590.06 37.73 590.06 43.74L590.06 44.32Q590.06 44.64 589.84 44.86Q589.62 45.09 589.30 45.09L580.21 45.47Q579.44 45.47 579.44 44.70L579.44 42.98Q579.44 41.50 578.67 40.64Q577.90 39.78 576.62 39.78Q575.41 39.78 574.64 40.64Q573.87 41.50 573.87 42.98L573.87 64.29Q573.87 65.70 574.64 66.56Q575.41 67.42 576.62 67.42Q577.90 67.42 578.67 66.56Q579.44 65.70 579.44 64.29L579.44 62.43Q579.44 62.11 579.66 61.89Q579.89 61.66 580.21 61.66L589.30 62.05Q589.62 62.05 589.84 62.27Q590.06 62.50 590.06 62.82L590.06 63.39Q590.06 69.34 586.38 72.93Q582.70 76.51 576.62 76.51" fill="#F4F4F1"/>
    <path d="M143.06 89.76Q143.06 89.86 142.99 89.93Q142.92 90 142.82 90L138.50 90Q138.40 90 138.40 90.10L138.40 93.88Q138.40 93.98 138.50 93.98L141.06 93.98Q141.16 93.98 141.23 94.05Q141.30 94.12 141.30 94.22L141.30 95.76Q141.30 95.86 141.23 95.93Q141.16 96 141.06 96L138.50 96Q138.40 96 138.40 96.10L138.40 99.90Q138.40 100 138.50 100L142.82 100Q142.92 100 142.99 100.07Q143.06 100.14 143.06 100.24L143.06 101.76Q143.06 101.86 142.99 101.93Q142.92 102 142.82 102L136.32 102Q136.22 102 136.15 101.93Q136.08 101.86 136.08 101.76L136.08 88.24Q136.08 88.14 136.15 88.07Q136.22 88 136.32 88L142.82 88Q142.92 88 142.99 88.07Q143.06 88.14 143.06 88.24 M155.04 87.84Q156.72 87.84 157.74 88.92Q158.76 90 158.76 91.74L158.76 98.26Q158.76 99.64 158.10 100.63Q157.44 101.62 156.28 101.98Q156.20 102 156.20 102.08L156.20 103.84Q156.20 103.94 156.13 104.01Q156.06 104.08 155.96 104.08L154.12 104.08Q154.02 104.08 153.95 104.01Q153.88 103.94 153.88 103.84L153.88 102.08Q153.88 102 153.80 101.98Q152.66 101.60 152 100.62Q151.34 99.64 151.34 98.26L151.34 91.74Q151.34 90 152.36 88.92Q153.38 87.84 155.04 87.84M156.44 98.50L156.44 91.50Q156.44 90.76 156.05 90.30Q155.66 89.84 155.04 89.84Q154.42 89.84 154.04 90.30Q153.66 90.76 153.66 91.50L153.66 98.50Q153.66 99.24 154.04 99.70Q154.42 100.16 155.04 100.16Q155.66 100.16 156.05 99.70Q156.44 99.24 156.44 98.50 M171.18 102.16Q169.46 102.16 168.43 101.05Q167.40 99.94 167.40 98.12L167.40 88.24Q167.40 88.14 167.47 88.07Q167.54 88 167.64 88L169.48 88Q169.58 88 169.65 88.07Q169.72 88.14 169.72 88.24L169.72 98.36Q169.72 99.16 170.12 99.66Q170.52 100.16 171.18 100.16Q171.84 100.16 172.24 99.66Q172.64 99.16 172.64 98.36L172.64 88.24Q172.64 88.14 172.71 88.07Q172.78 88 172.88 88L174.72 88Q174.82 88 174.89 88.07Q174.96 88.14 174.96 88.24L174.96 98.12Q174.96 99.94 173.92 101.05Q172.88 102.16 171.18 102.16 M184.08 102Q183.98 102 183.91 101.93Q183.84 101.86 183.84 101.76L183.84 88.24Q183.84 88.14 183.91 88.07Q183.98 88 184.08 88L185.92 88Q186.02 88 186.09 88.07Q186.16 88.14 186.16 88.24L186.16 101.76Q186.16 101.86 186.09 101.93Q186.02 102 185.92 102 M199.10 87.98Q200.16 87.98 200.97 88.50Q201.78 89.02 202.23 89.96Q202.68 90.90 202.68 92.10Q202.68 93.90 201.73 95Q200.78 96.10 199.22 96.10L197.52 96.10Q197.42 96.10 197.42 96.20L197.42 101.76Q197.42 101.86 197.35 101.93Q197.28 102 197.18 102L195.34 102Q195.24 102 195.17 101.93Q195.10 101.86 195.10 101.76L195.10 88.22Q195.10 88.12 195.17 88.05Q195.24 87.98 195.34 87.98L199.10 87.98M198.72 94.28Q199.46 94.28 199.91 93.71Q200.36 93.14 200.36 92.16Q200.36 91.16 199.91 90.57Q199.46 89.98 198.72 89.98L197.52 89.98Q197.42 89.98 197.42 90.08L197.42 94.18Q197.42 94.28 197.52 94.28 M217.34 88.16Q217.44 88 217.64 88L219.48 88Q219.58 88 219.65 88.07Q219.72 88.14 219.72 88.24L219.72 101.76Q219.72 101.86 219.65 101.93Q219.58 102 219.48 102L217.64 102Q217.54 102 217.47 101.93Q217.40 101.86 217.40 101.76L217.40 92.32Q217.40 92.24 217.36 92.24Q217.32 92.24 217.28 92.30L215.54 95.46Q215.44 95.62 215.36 95.62Q215.28 95.62 215.18 95.46L213.44 92.30Q213.40 92.24 213.36 92.24Q213.32 92.24 213.32 92.32L213.32 101.76Q213.32 101.86 213.25 101.93Q213.18 102 213.08 102L211.24 102Q211.14 102 211.07 101.93Q211 101.86 211 101.76L211 88.24Q211 88.14 211.07 88.07Q211.14 88 211.24 88L213.08 88Q213.28 88 213.38 88.16L215.32 91.58Q215.38 91.66 215.44 91.58 M235.60 89.76Q235.60 89.86 235.53 89.93Q235.46 90 235.36 90L231.04 90Q230.94 90 230.94 90.10L230.94 93.88Q230.94 93.98 231.04 93.98L233.60 93.98Q233.70 93.98 233.77 94.05Q233.84 94.12 233.84 94.22L233.84 95.76Q233.84 95.86 233.77 95.93Q233.70 96 233.60 96L231.04 96Q230.94 96 230.94 96.10L230.94 99.90Q230.94 100 231.04 100L235.36 100Q235.46 100 235.53 100.07Q235.60 100.14 235.60 100.24L235.60 101.76Q235.60 101.86 235.53 101.93Q235.46 102 235.36 102L228.86 102Q228.76 102 228.69 101.93Q228.62 101.86 228.62 101.76L228.62 88.24Q228.62 88.14 228.69 88.07Q228.76 88 228.86 88L235.36 88Q235.46 88 235.53 88.07Q235.60 88.14 235.60 88.24 M249.80 88.24Q249.80 88.14 249.87 88.07Q249.94 88 250.04 88L251.86 88Q251.96 88 252.03 88.07Q252.10 88.14 252.10 88.24L252.10 101.76Q252.10 101.86 252.03 101.93Q251.96 102 251.86 102L249.76 102Q249.56 102 249.50 101.80L246.52 93.32Q246.50 93.26 246.45 93.27Q246.40 93.28 246.40 93.34L246.42 101.76Q246.42 101.86 246.35 101.93Q246.28 102 246.18 102L244.36 102Q244.26 102 244.19 101.93Q244.12 101.86 244.12 101.76L244.12 88.24Q244.12 88.14 244.19 88.07Q244.26 88 244.36 88L246.42 88Q246.62 88 246.68 88.20L249.68 96.62Q249.70 96.68 249.75 96.67Q249.80 96.66 249.80 96.60 M268.24 88Q268.34 88 268.41 88.07Q268.48 88.14 268.48 88.24L268.48 89.76Q268.48 89.86 268.41 89.93Q268.34 90 268.24 90L265.70 90Q265.60 90 265.60 90.10L265.60 101.76Q265.60 101.86 265.53 101.93Q265.46 102 265.36 102L263.52 102Q263.42 102 263.35 101.93Q263.28 101.86 263.28 101.76L263.28 90.10Q263.28 90 263.18 90L260.78 90Q260.68 90 260.61 89.93Q260.54 89.86 260.54 89.76L260.54 88.24Q260.54 88.14 260.61 88.07Q260.68 88 260.78 88  M291 102.16Q289.34 102.16 288.32 101.16Q287.30 100.16 287.30 98.54L287.30 98.02Q287.30 97.92 287.37 97.85Q287.44 97.78 287.54 97.78L289.36 97.78Q289.46 97.78 289.53 97.85Q289.60 97.92 289.60 98.02L289.60 98.42Q289.60 99.20 289.99 99.68Q290.38 100.16 291 100.16Q291.62 100.16 292.02 99.71Q292.42 99.26 292.42 98.52Q292.42 98 292.20 97.62Q291.98 97.24 291.58 96.90Q291.18 96.56 290.30 95.92Q289.30 95.20 288.69 94.64Q288.08 94.08 287.67 93.29Q287.26 92.50 287.26 91.46Q287.26 89.80 288.26 88.82Q289.26 87.84 290.90 87.84Q292.56 87.84 293.58 88.87Q294.60 89.90 294.60 91.60L294.60 92.08Q294.60 92.18 294.53 92.25Q294.46 92.32 294.36 92.32L292.56 92.32Q292.46 92.32 292.39 92.25Q292.32 92.18 292.32 92.08L292.32 91.56Q292.32 90.78 291.93 90.31Q291.54 89.84 290.90 89.84Q290.30 89.84 289.92 90.27Q289.54 90.70 289.54 91.46Q289.54 92.18 289.95 92.68Q290.36 93.18 291.56 94.06Q292.78 94.96 293.40 95.53Q294.02 96.10 294.36 96.78Q294.70 97.46 294.70 98.40Q294.70 100.10 293.68 101.13Q292.66 102.16 291 102.16 M310.16 89.76Q310.16 89.86 310.09 89.93Q310.02 90 309.92 90L305.60 90Q305.50 90 305.50 90.10L305.50 93.88Q305.50 93.98 305.60 93.98L308.16 93.98Q308.26 93.98 308.33 94.05Q308.40 94.12 308.40 94.22L308.40 95.76Q308.40 95.86 308.33 95.93Q308.26 96 308.16 96L305.60 96Q305.50 96 305.50 96.10L305.50 99.90Q305.50 100 305.60 100L309.92 100Q310.02 100 310.09 100.07Q310.16 100.14 310.16 100.24L310.16 101.76Q310.16 101.86 310.09 101.93Q310.02 102 309.92 102L303.42 102Q303.32 102 303.25 101.93Q303.18 101.86 303.18 101.76L303.18 88.24Q303.18 88.14 303.25 88.07Q303.32 88 303.42 88L309.92 88Q310.02 88 310.09 88.07Q310.16 88.14 310.16 88.24 M324.22 102Q324.02 102 323.96 101.80L322.26 96.06Q322.22 95.98 322.16 95.98L321.10 95.98Q321 95.98 321 96.08L321 101.76Q321 101.86 320.93 101.93Q320.86 102 320.76 102L318.92 102Q318.82 102 318.75 101.93Q318.68 101.86 318.68 101.76L318.68 88.24Q318.68 88.14 318.75 88.07Q318.82 88 318.92 88L322.68 88Q323.74 88 324.55 88.51Q325.36 89.02 325.81 89.95Q326.26 90.88 326.26 92.08Q326.26 93.32 325.78 94.22Q325.30 95.12 324.44 95.58Q324.36 95.60 324.38 95.70L326.34 101.72Q326.36 101.76 326.36 101.82Q326.36 102 326.14 102L324.22 102M321.10 90Q321 90 321 90.10L321 94.08Q321 94.18 321.10 94.18L322.32 94.18Q323.04 94.18 323.49 93.62Q323.94 93.06 323.94 92.10Q323.94 91.14 323.49 90.57Q323.04 90 322.32 90 M337.30 102Q337.08 102 337.04 101.78L334.18 88.26L334.16 88.18Q334.16 88 334.38 88L336.40 88Q336.64 88 336.66 88.22L338.32 97.84Q338.34 97.90 338.38 97.90Q338.42 97.90 338.44 97.84L340.06 88.22Q340.08 88 340.32 88L342.28 88Q342.54 88 342.48 88.26L339.60 101.78Q339.56 102 339.34 102 M351.16 102Q351.06 102 350.99 101.93Q350.92 101.86 350.92 101.76L350.92 88.24Q350.92 88.14 350.99 88.07Q351.06 88 351.16 88LNaN 88Q353.10 88 353.17 88.07Q353.24 88.14 353.24 88.24L353.24 101.76Q353.24 101.86 353.17 101.93Q353.10 102 NaN 102 M365.72 102.16Q364.02 102.16 362.99 101.13Q361.96 100.10 361.96 98.40L361.96 91.58Q361.96 89.86 362.99 88.85Q364.02 87.84 365.72 87.84Q367.44 87.84 368.48 88.85Q369.52 89.86 369.52 91.58L369.52 91.82Q369.52 91.92 369.45 92Q369.38 92.08 369.28 92.08L367.42 92.16Q367.18 92.16 367.18 91.92L367.18 91.42Q367.18 90.72 366.78 90.28Q366.38 89.84 365.72 89.84Q365.08 89.84 364.68 90.28Q364.28 90.72 364.28 91.42L364.28 98.58Q364.28 99.28 364.68 99.72Q365.08 100.16 365.72 100.16Q366.38 100.16 366.78 99.72Q367.18 99.28 367.18 98.58L367.18 98.08Q367.18 97.98 367.25 97.91Q367.32 97.84 367.42 97.84L369.28 97.92Q369.38 97.92 369.45 97.99Q369.52 98.06 369.52 98.16L369.52 98.40Q369.52 100.10 368.48 101.13Q367.44 102.16 365.72 102.16 M385.12 89.76Q385.12 89.86 385.05 89.93Q384.98 90 384.88 90L380.56 90Q380.46 90 380.46 90.10L380.46 93.88Q380.46 93.98 380.56 93.98L383.12 93.98Q383.22 93.98 383.29 94.05Q383.36 94.12 383.36 94.22L383.36 95.76Q383.36 95.86 383.29 95.93Q383.22 96 383.12 96L380.56 96Q380.46 96 380.46 96.10L380.46 99.90Q380.46 100 380.56 100L384.88 100Q384.98 100 385.05 100.07Q385.12 100.14 385.12 100.24L385.12 101.76Q385.12 101.86 385.05 101.93Q384.98 102 384.88 102L378.38 102Q378.28 102 378.21 101.93Q378.14 101.86 378.14 101.76L378.14 88.24Q378.14 88.14 378.21 88.07Q378.28 88 378.38 88L384.88 88Q384.98 88 385.05 88.07Q385.12 88.14 385.12 88.24 M396.94 102.16Q395.28 102.16 394.26 101.16Q393.24 100.16 393.24 98.54L393.24 98.02Q393.24 97.92 393.31 97.85Q393.38 97.78 393.48 97.78L395.30 97.78Q395.40 97.78 395.47 97.85Q395.54 97.92 395.54 98.02L395.54 98.42Q395.54 99.20 395.93 99.68Q396.32 100.16 396.94 100.16Q397.56 100.16 397.96 99.71Q398.36 99.26 398.36 98.52Q398.36 98 398.14 97.62Q397.92 97.24 397.52 96.90Q397.12 96.56 396.24 95.92Q395.24 95.20 394.63 94.64Q394.02 94.08 393.61 93.29Q393.20 92.50 393.20 91.46Q393.20 89.80 394.20 88.82Q395.20 87.84 396.84 87.84Q398.50 87.84 399.52 88.87Q400.54 89.90 400.54 91.60L400.54 92.08Q400.54 92.18 400.47 92.25Q400.40 92.32 400.30 92.32L398.50 92.32Q398.40 92.32 398.33 92.25Q398.26 92.18 398.26 92.08L398.26 91.56Q398.26 90.78 397.87 90.31Q397.48 89.84 396.84 89.84Q396.24 89.84 395.86 90.27Q395.48 90.70 395.48 91.46Q395.48 92.18 395.89 92.68Q396.30 93.18 397.50 94.06Q398.72 94.96 399.34 95.53Q399.96 96.10 400.30 96.78Q400.64 97.46 400.64 98.40Q400.64 100.10 399.62 101.13Q398.60 102.16 396.94 102.16" fill="#AEB6BF"/>
    <rect x="135" y="112" width="58" height="4" rx="2" fill="#D3FF00"/>
</svg>
