<svg xmlns="http://www.w3.org/2000/svg" viewBox="0 0 1014 228" width="1014" height="228" role="img" aria-label="Rogers Hydraulic and Equipment Services">
  <title>Rogers Hydraulic &amp; Equipment Services</title>
  <rect x="38" y="38" width="938" height="101.5" fill="none" stroke="#F4F4F1" stroke-width="6"/>
  <path d="M100.90 125.50L83 125.50L83 44.50L105.30 44.50Q113.50 44.50 119.50 46.30Q125.50 48.10 128.85 52.75Q132.20 57.40 132.20 65.90Q132.20 70.90 131.40 74.80Q130.60 78.70 128.45 81.55Q126.30 84.40 122.30 86.30L133.40 125.50L114.90 125.50L106 89.20L100.90 89.20L100.90 125.50M100.90 56.50L100.90 78.90L105.90 78.90Q109.70 78.90 111.80 77.55Q113.90 76.20 114.75 73.65Q115.60 71.10 115.60 67.50Q115.60 62.30 113.70 59.40Q111.80 56.50 106.70 56.50 M168.20 126.70Q159.10 126.70 153.80 123.50Q148.50 120.30 146.20 114.30Q143.90 108.30 143.90 100L143.90 69.90Q143.90 61.50 146.20 55.60Q148.50 49.70 153.80 46.55Q159.10 43.40 168.20 43.40Q177.40 43.40 182.75 46.55Q188.10 49.70 190.40 55.60Q192.70 61.50 192.70 69.90L192.70 100Q192.70 108.30 190.40 114.30Q188.10 120.30 182.75 123.50Q177.40 126.70 168.20 126.70M168.20 114Q171 114 172.30 112.60Q173.60 111.20 174 109Q174.40 106.80 174.40 104.50L174.40 65.50Q174.40 63.10 174 60.95Q173.60 58.80 172.30 57.40Q171 56 168.20 56Q165.60 56 164.30 57.40Q163 58.80 162.60 60.95Q162.20 63.10 162.20 65.50L162.20 104.50Q162.20 106.80 162.55 109Q162.90 111.20 164.15 112.60Q165.40 114 168.20 114 M226.70 126.70Q218.30 126.70 213.45 123.20Q208.60 119.70 206.55 113.35Q204.50 107 204.50 98.70L204.50 71.50Q204.50 62.90 206.70 56.60Q208.90 50.30 214.25 46.85Q219.60 43.40 228.80 43.40Q237.80 43.40 242.95 46.40Q248.10 49.40 250.30 54.70Q252.50 60 252.50 67.10L252.50 72.30L235 72.30L235 65.70Q235 63.10 234.65 60.90Q234.30 58.70 233.05 57.35Q231.80 56 229 56Q226.10 56 224.80 57.55Q223.50 59.10 223.15 61.40Q222.80 63.70 222.80 66.20L222.80 103.70Q222.80 106.40 223.35 108.75Q223.90 111.10 225.35 112.55Q226.80 114 229.50 114Q232.30 114 233.80 112.50Q235.30 111 235.90 108.60Q236.50 106.20 236.50 103.50L236.50 94L229.20 94L229.20 83.50L252.60 83.50L252.60 125.50L240.80 125.50L239.80 118.80Q238.20 122.20 235.10 124.45Q232 126.70 226.70 126.70 M302.40 125.50L265.80 125.50L265.80 44.50L302.20 44.50L302.20 56.70L283.70 56.70L283.70 76.80L297.80 76.80L297.80 89.20L283.70 89.20L283.70 113.40L302.40 113.40 M330.40 125.50L312.50 125.50L312.50 44.50L334.80 44.50Q343 44.50 349 46.30Q355 48.10 358.35 52.75Q361.70 57.40 361.70 65.90Q361.70 70.90 360.90 74.80Q360.10 78.70 357.95 81.55Q355.80 84.40 351.80 86.30L362.90 125.50L344.40 125.50L335.50 89.20L330.40 89.20L330.40 125.50M330.40 56.50L330.40 78.90L335.40 78.90Q339.20 78.90 341.30 77.55Q343.40 76.20 344.25 73.65Q345.10 71.10 345.10 67.50Q345.10 62.30 343.20 59.40Q341.30 56.50 336.20 56.50 M396 126.70Q388.40 126.70 383.30 124Q378.20 121.30 375.60 115.65Q373 110 372.70 101L388 98.70Q388.10 103.90 388.95 107.10Q389.80 110.30 391.35 111.70Q392.90 113.10 395.10 113.10Q397.90 113.10 398.75 111.20Q399.60 109.30 399.60 107.20Q399.60 102.20 397.20 98.75Q394.80 95.30 390.70 91.80L383.70 85.70Q379.10 81.80 375.95 76.85Q372.80 71.90 372.80 64.60Q372.80 54.30 378.90 48.85Q385 43.40 395.50 43.40Q402 43.40 405.95 45.60Q409.90 47.80 411.95 51.35Q414 54.90 414.75 58.85Q415.50 62.80 415.60 66.40L400.20 68.30Q400.10 64.70 399.75 62.05Q399.40 59.40 398.30 57.95Q397.20 56.50 394.90 56.50Q392.40 56.50 391.25 58.60Q390.10 60.70 390.10 62.80Q390.10 67.30 392.25 70.15Q394.40 73 397.90 76.10L404.60 82Q409.90 86.50 413.55 92.20Q417.20 97.90 417.20 106.30Q417.20 112 414.60 116.65Q412 121.30 407.25 124Q402.50 126.70 396 126.70" fill="#F4F4F1"/>
  <path d="M471.70 125.50L453.80 125.50L453.80 44.50L471.70 44.50L471.70 77.30L484.30 77.30L484.30 44.50L502.20 44.50L502.20 125.50L484.30 125.50L484.30 90.10L471.70 90.10 M543.90 125.50L526.70 125.50L526.70 92.40L511.30 44.50L528.20 44.50L535.90 70.10L542.80 44.50L559 44.50L543.90 92.40 M588.50 125.50L567.80 125.50L567.80 44.50L588.30 44.50Q598.90 44.50 604.80 47.15Q610.70 49.80 613.10 55.45Q615.50 61.10 615.50 70.10L615.50 99.50Q615.50 108.60 613.10 114.35Q610.70 120.10 604.85 122.80Q599 125.50 588.50 125.50M585.70 57L585.70 113.10L588.50 113.10Q592.60 113.10 594.40 111.90Q596.20 110.70 596.65 108.30Q597.10 105.90 597.10 102.30L597.10 67Q597.10 63.40 596.55 61.20Q596 59 594.20 58Q592.40 57 588.40 57 M646.30 125.50L628.40 125.50L628.40 44.50L650.70 44.50Q658.90 44.50 664.90 46.30Q670.90 48.10 674.25 52.75Q677.60 57.40 677.60 65.90Q677.60 70.90 676.80 74.80Q676 78.70 673.85 81.55Q671.70 84.40 667.70 86.30L678.80 125.50L660.30 125.50L651.40 89.20L646.30 89.20L646.30 125.50M646.30 56.50L646.30 78.90L651.30 78.90Q655.10 78.90 657.20 77.55Q659.30 76.20 660.15 73.65Q661 71.10 661 67.50Q661 62.30 659.10 59.40Q657.20 56.50 652.10 56.50 M703.40 125.50L686.50 125.50L701.80 44.50L722.20 44.50L737.30 125.50L720.80 125.50L718.10 108.40L706.20 108.40L703.40 125.50M712.10 66.10L707.80 97.70L716.40 97.70 M770.90 126.70Q761.60 126.70 756.35 123.65Q751.10 120.60 749 114.75Q746.90 108.90 746.90 100.40L746.90 44.50L764.60 44.50L764.60 103.10Q764.60 105.60 765 108.10Q765.40 110.60 766.75 112.20Q768.10 113.80 770.90 113.80Q773.80 113.80 775.10 112.20Q776.40 110.60 776.75 108.10Q777.10 105.60 777.10 103.10L777.10 44.50L794.90 44.50L794.90 100.40Q794.90 108.90 792.75 114.75Q790.60 120.60 785.40 123.65Q780.20 126.70 770.90 126.70 M844.80 125.50L808.30 125.50L808.30 44.50L826.20 44.50L826.20 113.40L844.80 113.40 M872.60 125.50L854.70 125.50L854.70 44.50L872.60 44.50 M909.90 126.70Q900.70 126.70 895.35 123.35Q890 120 887.80 113.95Q885.60 107.90 885.60 99.70L885.60 70.50Q885.60 62.10 887.80 56.05Q890 50 895.35 46.70Q900.70 43.40 909.90 43.40Q918.90 43.40 923.95 46.35Q929 49.30 931.10 54.60Q933.20 59.90 933.20 66.80L933.20 73.80L915.70 73.80L915.70 65.70Q915.70 63.30 915.45 61.10Q915.20 58.90 914 57.45Q912.80 56 909.90 56Q907.10 56 905.75 57.50Q904.40 59 904.05 61.25Q903.70 63.50 903.70 66L903.70 104.10Q903.70 106.80 904.15 109.05Q904.60 111.30 905.95 112.65Q907.30 114 909.90 114Q912.70 114 913.90 112.55Q915.10 111.10 915.40 108.80Q915.70 106.50 915.70 104.10L915.70 95.60L933.20 95.60L933.20 102.60Q933.20 109.50 931.15 114.95Q929.10 120.40 924.05 123.55Q919 126.70 909.90 126.70" fill="#F4F4F1"/>
  <path d="M43.29 184.59Q41.81 184.59 40.74 183.95Q39.67 183.32 39.12 182.21Q38.57 181.10 38.57 179.67Q38.57 177.59 39.50 176.07Q40.43 174.54 41.75 173.36Q41.27 172.38 40.71 171.40Q40.16 170.41 39.77 169.35Q39.38 168.28 39.38 167.12Q39.38 165.66 39.94 164.58Q40.51 163.50 41.56 162.89Q42.62 162.29 44.05 162.29Q45.37 162.29 46.41 162.77Q47.45 163.26 48.07 164.16Q48.69 165.07 48.69 166.34Q48.69 167.77 48.03 169.08Q47.37 170.39 46.42 171.51Q45.48 172.63 44.59 173.49L47.88 178.68Q48.18 178.11 48.38 177.39Q48.58 176.68 48.73 175.87Q48.88 175.06 48.96 174.30L51.82 174.30Q51.82 175.35 51.51 176.51Q51.20 177.68 50.72 178.72Q50.23 179.75 49.72 180.48Q50.07 180.92 50.63 181.25Q51.20 181.59 51.85 181.59L51.85 184.56Q51.74 184.56 51.65 184.56Q51.55 184.56 51.47 184.56Q50.69 184.53 50.07 184.20Q49.45 183.86 48.95 183.37Q48.45 182.89 47.99 182.46Q47.26 183.37 46.09 183.98Q44.91 184.59 43.29 184.59M43.29 182.19Q44.32 182.19 45.02 181.69Q45.72 181.19 46.23 180.56L42.89 175.41Q42.24 176.25 41.85 177.37Q41.45 178.49 41.45 179.67Q41.45 180.29 41.62 180.88Q41.78 181.46 42.18 181.82Q42.59 182.19 43.29 182.19M43.59 171.93Q44.16 171.25 44.65 170.33Q45.15 169.41 45.48 168.37Q45.80 167.34 45.80 166.34Q45.80 165.55 45.32 165.11Q44.83 164.66 44.05 164.66Q43.08 164.66 42.67 165.42Q42.27 166.17 42.27 167.12Q42.27 168.36 42.68 169.59Q43.10 170.82 43.59 171.93  M84.36 184.34L75.83 184.34L75.83 162.47L84.30 162.47L84.30 164.74L78.88 164.74L78.88 171.98L83.28 171.98L83.28 174.14L78.88 174.14L78.88 182.16L84.36 182.16 M104.63 186.37L104.15 188.77Q103.42 188.40 102.70 187.69Q101.99 186.99 101.35 186.15Q100.72 185.32 100.21 184.56Q100.10 184.59 99.96 184.59Q99.83 184.59 99.69 184.59Q97.48 184.59 96.16 183.72Q94.83 182.86 94.27 181.25Q93.70 179.65 93.70 177.49L93.70 169.20Q93.70 167.04 94.28 165.49Q94.86 163.93 96.17 163.11Q97.48 162.29 99.69 162.29Q101.91 162.29 103.22 163.12Q104.53 163.96 105.11 165.50Q105.69 167.04 105.69 169.20L105.69 177.51Q105.69 179.11 105.36 180.42Q105.04 181.73 104.34 182.66Q103.64 183.59 102.47 184.07Q102.80 184.48 103.18 184.93Q103.55 185.37 103.93 185.75Q104.31 186.13 104.63 186.37M99.69 182.19Q100.94 182.19 101.56 181.69Q102.18 181.19 102.39 180.28Q102.61 179.38 102.61 178.16L102.61 168.58Q102.61 167.36 102.39 166.48Q102.18 165.61 101.56 165.13Q100.94 164.66 99.69 164.66Q98.48 164.66 97.84 165.13Q97.21 165.61 96.99 166.48Q96.78 167.36 96.78 168.58L96.78 178.16Q96.78 179.38 96.99 180.28Q97.21 181.19 97.84 181.69Q98.48 182.19 99.69 182.19 M121.64 184.59Q119.27 184.59 118 183.64Q116.73 182.70 116.27 180.98Q115.81 179.27 115.81 176.97L115.81 162.47L118.73 162.47L118.73 177.11Q118.73 178.51 118.92 179.67Q119.11 180.84 119.74 181.51Q120.38 182.19 121.64 182.19Q122.94 182.19 123.56 181.51Q124.18 180.84 124.37 179.67Q124.56 178.51 124.56 177.11L124.56 162.47L127.45 162.47L127.45 176.97Q127.45 179.27 126.99 180.98Q126.53 182.70 125.28 183.64Q124.02 184.59 121.64 184.59 M141.11 184.34L138.11 184.34L138.11 162.47L141.11 162.47 M154.99 184.34L151.94 184.34L151.94 162.47L157.37 162.47Q159.34 162.47 160.51 163.19Q161.69 163.91 162.23 165.26Q162.77 166.61 162.77 168.52Q162.77 170.25 162.16 171.52Q161.55 172.79 160.36 173.48Q159.17 174.17 157.39 174.17L154.99 174.17L154.99 184.34M154.99 164.66L154.99 171.98L156.39 171.98Q157.72 171.98 158.47 171.68Q159.23 171.38 159.55 170.64Q159.88 169.90 159.88 168.55Q159.88 166.98 159.65 166.15Q159.42 165.31 158.69 164.99Q157.96 164.66 156.42 164.66 M174.62 184.34L172.13 184.34L172.54 162.47L175.54 162.47L179.40 180.21L183.29 162.47L186.26 162.47L186.66 184.34L184.20 184.34L183.96 168.47L180.26 184.34L178.53 184.34L174.86 168.47 M205.83 184.34L197.30 184.34L197.30 162.47L205.78 162.47L205.78 164.74L200.35 164.74L200.35 171.98L204.75 171.98L204.75 174.14L200.35 174.14L200.35 182.16L205.83 182.16 M218.17 184.34L215.58 184.34L215.58 162.47L217.66 162.47L223.87 177L223.87 162.47L226.40 162.47L226.40 184.34L224.46 184.34L218.17 169.41 M242.58 184.34L239.53 184.34L239.53 164.74L235.83 164.74L235.83 162.47L246.17 162.47L246.17 164.74L242.58 164.74  M274.19 184.59Q272.30 184.59 271.05 183.78Q269.79 182.97 269.15 181.54Q268.50 180.11 268.39 178.22L271.09 177.49Q271.17 178.65 271.45 179.73Q271.74 180.81 272.39 181.50Q273.03 182.19 274.19 182.19Q275.38 182.19 275.99 181.52Q276.60 180.86 276.60 179.62Q276.60 178.13 275.92 177.23Q275.25 176.33 274.22 175.41L270.55 172.17Q269.47 171.22 268.96 170.10Q268.44 168.98 268.44 167.34Q268.44 164.93 269.82 163.61Q271.20 162.29 273.57 162.29Q274.87 162.29 275.86 162.62Q276.84 162.96 277.50 163.66Q278.16 164.37 278.56 165.43Q278.95 166.50 279.08 167.93L276.49 168.63Q276.41 167.55 276.17 166.65Q275.92 165.74 275.32 165.19Q274.71 164.63 273.57 164.63Q272.44 164.63 271.81 165.24Q271.17 165.85 271.17 167.04Q271.17 168.04 271.51 168.69Q271.85 169.33 272.60 170.01L276.30 173.25Q277.54 174.33 278.49 175.83Q279.43 177.32 279.43 179.38Q279.43 181 278.76 182.17Q278.08 183.35 276.91 183.97Q275.73 184.59 274.19 184.59 M297.63 184.34L289.10 184.34L289.10 162.47L297.58 162.47L297.58 164.74L292.15 164.74L292.15 171.98L296.55 171.98L296.55 174.14L292.15 174.14L292.15 182.16L297.63 182.16 M310.43 184.34L307.38 184.34L307.38 162.47L311.78 162.47Q313.97 162.47 315.40 163.06Q316.83 163.64 317.52 164.92Q318.20 166.20 318.20 168.28Q318.20 169.55 317.93 170.59Q317.66 171.63 317.07 172.34Q316.48 173.06 315.50 173.38L318.61 184.34L315.67 184.34L312.80 174.09L310.43 174.09L310.43 184.34M310.43 164.66L310.43 171.90L311.59 171.90Q312.89 171.90 313.70 171.57Q314.51 171.25 314.88 170.47Q315.26 169.68 315.26 168.28Q315.26 166.36 314.56 165.51Q313.86 164.66 311.78 164.66 M335.16 184.34L332.49 184.34L327.60 162.47L330.46 162.47L333.92 178.59L337.21 162.47L339.99 162.47 M352.76 184.34L349.77 184.34L349.77 162.47L352.76 162.47 M369.07 184.59Q366.75 184.59 365.47 183.62Q364.19 182.64 363.69 181Q363.19 179.35 363.19 177.32L363.19 169.60Q363.19 167.39 363.69 165.74Q364.19 164.09 365.47 163.19Q366.75 162.29 369.07 162.29Q371.12 162.29 372.33 163.04Q373.53 163.80 374.05 165.20Q374.58 166.61 374.58 168.58L374.58 170.31L371.69 170.31L371.69 168.77Q371.69 167.55 371.57 166.62Q371.45 165.69 370.91 165.18Q370.37 164.66 369.10 164.66Q367.80 164.66 367.21 165.22Q366.62 165.77 366.44 166.78Q366.26 167.79 366.26 169.14L366.26 177.81Q366.26 179.46 366.53 180.42Q366.80 181.38 367.43 181.78Q368.05 182.19 369.10 182.19Q370.34 182.19 370.88 181.63Q371.42 181.08 371.56 180.11Q371.69 179.13 371.69 177.84L371.69 176.22L374.58 176.22L374.58 177.84Q374.58 179.84 374.09 181.36Q373.61 182.89 372.42 183.74Q371.23 184.59 369.07 184.59 M393.32 184.34L384.79 184.34L384.79 162.47L393.26 162.47L393.26 164.74L387.84 164.74L387.84 171.98L392.24 171.98L392.24 174.14L387.84 174.14L387.84 182.16L393.32 182.16 M408.22 184.59Q406.33 184.59 405.08 183.78Q403.82 182.97 403.17 181.54Q402.53 180.11 402.42 178.22L405.12 177.49Q405.20 178.65 405.48 179.73Q405.77 180.81 406.41 181.50Q407.06 182.19 408.22 182.19Q409.41 182.19 410.02 181.52Q410.63 180.86 410.63 179.62Q410.63 178.13 409.95 177.23Q409.28 176.33 408.25 175.41L404.58 172.17Q403.50 171.22 402.98 170.10Q402.47 168.98 402.47 167.34Q402.47 164.93 403.85 163.61Q405.23 162.29 407.60 162.29Q408.90 162.29 409.88 162.62Q410.87 162.96 411.53 163.66Q412.19 164.37 412.58 165.43Q412.97 166.50 413.11 167.93L410.52 168.63Q410.44 167.55 410.19 166.65Q409.95 165.74 409.34 165.19Q408.74 164.63 407.60 164.63Q406.47 164.63 405.83 165.24Q405.20 165.85 405.20 167.04Q405.20 168.04 405.54 168.69Q405.87 169.33 406.63 170.01L410.33 173.25Q411.57 174.33 412.52 175.83Q413.46 177.32 413.46 179.38Q413.46 181 412.79 182.17Q412.11 183.35 410.94 183.97Q409.76 184.59 408.22 184.59" fill="#F4F4F1"/>
</svg>
