<svg xmlns="http://www.w3.org/2000/svg" viewBox="0 0 1014 178" width="1014" height="178" role="img" aria-label="Rogers Hydraulic and Equipment Services">
  <title>Rogers Hydraulic &amp; Equipment Services</title>
  <rect x="38" y="38" width="938" height="101.5" fill="#14181C" stroke="#D3FF00" stroke-width="6"/>
  <path d="M100.90 125.50L83 125.50L83 44.50L105.30 44.50Q113.50 44.50 119.50 46.30Q125.50 48.10 128.85 52.75Q132.20 57.40 132.20 65.90Q132.20 70.90 131.40 74.80Q130.60 78.70 128.45 81.55Q126.30 84.40 122.30 86.30L133.40 125.50L114.90 125.50L106 89.20L100.90 89.20L100.90 125.50M100.90 56.50L100.90 78.90L105.90 78.90Q109.70 78.90 111.80 77.55Q113.90 76.20 114.75 73.65Q115.60 71.10 115.60 67.50Q115.60 62.30 113.70 59.40Q111.80 56.50 106.70 56.50 M168.20 126.70Q159.10 126.70 153.80 123.50Q148.50 120.30 146.20 114.30Q143.90 108.30 143.90 100L143.90 69.90Q143.90 61.50 146.20 55.60Q148.50 49.70 153.80 46.55Q159.10 43.40 168.20 43.40Q177.40 43.40 182.75 46.55Q188.10 49.70 190.40 55.60Q192.70 61.50 192.70 69.90L192.70 100Q192.70 108.30 190.40 114.30Q188.10 120.30 182.75 123.50Q177.40 126.70 168.20 126.70M168.20 114Q171 114 172.30 112.60Q173.60 111.20 174 109Q174.40 106.80 174.40 104.50L174.40 65.50Q174.40 63.10 174 60.95Q173.60 58.80 172.30 57.40Q171 56 168.20 56Q165.60 56 164.30 57.40Q163 58.80 162.60 60.95Q162.20 63.10 162.20 65.50L162.20 104.50Q162.20 106.80 162.55 109Q162.90 111.20 164.15 112.60Q165.40 114 168.20 114 M226.70 126.70Q218.30 126.70 213.45 123.20Q208.60 119.70 206.55 113.35Q204.50 107 204.50 98.70L204.50 71.50Q204.50 62.90 206.70 56.60Q208.90 50.30 214.25 46.85Q219.60 43.40 228.80 43.40Q237.80 43.40 242.95 46.40Q248.10 49.40 250.30 54.70Q252.50 60 252.50 67.10L252.50 72.30L235 72.30L235 65.70Q235 63.10 234.65 60.90Q234.30 58.70 233.05 57.35Q231.80 56 229 56Q226.10 56 224.80 57.55Q223.50 59.10 223.15 61.40Q222.80 63.70 222.80 66.20L222.80 103.70Q222.80 106.40 223.35 108.75Q223.90 111.10 225.35 112.55Q226.80 114 229.50 114Q232.30 114 233.80 112.50Q235.30 111 235.90 108.60Q236.50 106.20 236.50 103.50L236.50 94L229.20 94L229.20 83.50L252.60 83.50L252.60 125.50L240.80 125.50L239.80 118.80Q238.20 122.20 235.10 124.45Q232 126.70 226.70 126.70 M302.40 125.50L265.80 125.50L265.80 44.50L302.20 44.50L302.20 56.70L283.70 56.70L283.70 76.80L297.80 76.80L297.80 89.20L283.70 89.20L283.70 113.40L302.40 113.40 M330.40 125.50L312.50 125.50L312.50 44.50L334.80 44.50Q343 44.50 349 46.30Q355 48.10 358.35 52.75Q361.70 57.40 361.70 65.90Q361.70 70.90 360.90 74.80Q360.10 78.70 357.95 81.55Q355.80 84.40 351.80 86.30L362.90 125.50L344.40 125.50L335.50 89.20L330.40 89.20L330.40 125.50M330.40 56.50L330.40 78.90L335.40 78.90Q339.20 78.90 341.30 77.55Q343.40 76.20 344.25 73.65Q345.10 71.10 345.10 67.50Q345.10 62.30 343.20 59.40Q341.30 56.50 336.20 56.50 M396 126.70Q388.40 126.70 383.30 124Q378.20 121.30 375.60 115.65Q373 110 372.70 101L388 98.70Q388.10 103.90 388.95 107.10Q389.80 110.30 391.35 111.70Q392.90 113.10 395.10 113.10Q397.90 113.10 398.75 111.20Q399.60 109.30 399.60 107.20Q399.60 102.20 397.20 98.75Q394.80 95.30 390.70 91.80L383.70 85.70Q379.10 81.80 375.95 76.85Q372.80 71.90 372.80 64.60Q372.80 54.30 378.90 48.85Q385 43.40 395.50 43.40Q402 43.40 405.95 45.60Q409.90 47.80 411.95 51.35Q414 54.90 414.75 58.85Q415.50 62.80 415.60 66.40L400.20 68.30Q400.10 64.70 399.75 62.05Q399.40 59.40 398.30 57.95Q397.20 56.50 394.90 56.50Q392.40 56.50 391.25 58.60Q390.10 60.70 390.10 62.80Q390.10 67.30 392.25 70.15Q394.40 73 397.90 76.10L404.60 82Q409.90 86.50 413.55 92.20Q417.20 97.90 417.20 106.30Q417.20 112 414.60 116.65Q412 121.30 407.25 124Q402.50 126.70 396 126.70" fill="#F4F4F1"/>
  <path d="M471.70 125.50L453.80 125.50L453.80 44.50L471.70 44.50L471.70 77.30L484.30 77.30L484.30 44.50L502.20 44.50L502.20 125.50L484.30 125.50L484.30 90.10L471.70 90.10 M543.90 125.50L526.70 125.50L526.70 92.40L511.30 44.50L528.20 44.50L535.90 70.10L542.80 44.50L559 44.50L543.90 92.40 M588.50 125.50L567.80 125.50L567.80 44.50L588.30 44.50Q598.90 44.50 604.80 47.15Q610.70 49.80 613.10 55.45Q615.50 61.10 615.50 70.10L615.50 99.50Q615.50 108.60 613.10 114.35Q610.70 120.10 604.85 122.80Q599 125.50 588.50 125.50M585.70 57L585.70 113.10L588.50 113.10Q592.60 113.10 594.40 111.90Q596.20 110.70 596.65 108.30Q597.10 105.90 597.10 102.30L597.10 67Q597.10 63.40 596.55 61.20Q596 59 594.20 58Q592.40 57 588.40 57 M646.30 125.50L628.40 125.50L628.40 44.50L650.70 44.50Q658.90 44.50 664.90 46.30Q670.90 48.10 674.25 52.75Q677.60 57.40 677.60 65.90Q677.60 70.90 676.80 74.80Q676 78.70 673.85 81.55Q671.70 84.40 667.70 86.30L678.80 125.50L660.30 125.50L651.40 89.20L646.30 89.20L646.30 125.50M646.30 56.50L646.30 78.90L651.30 78.90Q655.10 78.90 657.20 77.55Q659.30 76.20 660.15 73.65Q661 71.10 661 67.50Q661 62.30 659.10 59.40Q657.20 56.50 652.10 56.50 M703.40 125.50L686.50 125.50L701.80 44.50L722.20 44.50L737.30 125.50L720.80 125.50L718.10 108.40L706.20 108.40L703.40 125.50M712.10 66.10L707.80 97.70L716.40 97.70 M770.90 126.70Q761.60 126.70 756.35 123.65Q751.10 120.60 749 114.75Q746.90 108.90 746.90 100.40L746.90 44.50L764.60 44.50L764.60 103.10Q764.60 105.60 765 108.10Q765.40 110.60 766.75 112.20Q768.10 113.80 770.90 113.80Q773.80 113.80 775.10 112.20Q776.40 110.60 776.75 108.10Q777.10 105.60 777.10 103.10L777.10 44.50L794.90 44.50L794.90 100.40Q794.90 108.90 792.75 114.75Q790.60 120.60 785.40 123.65Q780.20 126.70 770.90 126.70 M844.80 125.50L808.30 125.50L808.30 44.50L826.20 44.50L826.20 113.40L844.80 113.40 M872.60 125.50L854.70 125.50L854.70 44.50L872.60 44.50 M909.90 126.70Q900.70 126.70 895.35 123.35Q890 120 887.80 113.95Q885.60 107.90 885.60 99.70L885.60 70.50Q885.60 62.10 887.80 56.05Q890 50 895.35 46.70Q900.70 43.40 909.90 43.40Q918.90 43.40 923.95 46.35Q929 49.30 931.10 54.60Q933.20 59.90 933.20 66.80L933.20 73.80L915.70 73.80L915.70 65.70Q915.70 63.30 915.45 61.10Q915.20 58.90 914 57.45Q912.80 56 909.90 56Q907.10 56 905.75 57.50Q904.40 59 904.05 61.25Q903.70 63.50 903.70 66L903.70 104.10Q903.70 106.80 904.15 109.05Q904.60 111.30 905.95 112.65Q907.30 114 909.90 114Q912.70 114 913.90 112.55Q915.10 111.10 915.40 108.80Q915.70 106.50 915.70 104.10L915.70 95.60L933.20 95.60L933.20 102.60Q933.20 109.50 931.15 114.95Q929.10 120.40 924.05 123.55Q919 126.70 909.90 126.70" fill="#D3FF00"/>
</svg>
