<svg xmlns="http://www.w3.org/2000/svg" viewBox="0 0 486 128" role="img" aria-label="Rogers Hydraulic and Equipment Services">
  <title>Rogers Hydraulic &amp; Equipment Services</title>
  <path d="M26.33 72Q25.60 72 25.40 71.34L20.92 53.85Q20.85 53.59 20.59 53.59L19.60 53.59Q19.27 53.59 19.27 53.92L19.27 71.21Q19.27 71.54 19.04 71.77Q18.80 72 18.47 72L9.10 72Q8.77 72 8.54 71.77Q8.31 71.54 8.31 71.21L8.31 26.59Q8.31 26.26 8.54 26.03Q8.77 25.80 9.10 25.80L23.29 25.80Q27.12 25.80 30.09 27.61Q33.06 29.43 34.68 32.70Q36.29 35.96 36.29 40.12Q36.29 43.82 34.94 46.75Q33.59 49.69 31.15 51.47Q31.01 51.54 30.95 51.64Q30.88 51.74 30.95 51.87L36.62 71.08L36.69 71.34Q36.69 72 35.96 72L26.33 72M19.60 35.17Q19.27 35.17 19.27 35.50L19.27 44.87Q19.27 45.20 19.60 45.20L21.44 45.20Q23.23 45.20 24.28 43.88Q25.34 42.56 25.34 40.25Q25.34 37.81 24.28 36.49Q23.23 35.17 21.44 35.17 M53.85 72.53Q47.45 72.53 43.65 68.83Q39.86 65.14 39.86 58.87L39.86 38.93Q39.86 32.73 43.65 29Q47.45 25.27 53.85 25.27Q60.19 25.27 64.05 29Q67.91 32.73 67.91 38.93L67.91 58.87Q67.91 65.14 64.05 68.83Q60.19 72.53 53.85 72.53M53.85 63.16Q55.30 63.16 56.13 62.13Q56.95 61.11 56.95 59.33L56.95 38.47Q56.95 36.69 56.13 35.67Q55.30 34.64 53.85 34.64Q52.40 34.64 51.61 35.67Q50.81 36.69 50.81 38.47L50.81 59.33Q50.81 61.11 51.61 62.13Q52.40 63.16 53.85 63.16 M85.60 72.53Q79.33 72.53 75.56 69Q71.80 65.47 71.80 59.53L71.80 38.21Q71.80 32.27 75.56 28.77Q79.33 25.27 85.60 25.27Q91.87 25.27 95.66 28.84Q99.46 32.40 99.46 38.34L99.46 40.78Q99.46 41.11 99.22 41.34Q98.99 41.57 98.66 41.57L89.29 41.57Q88.96 41.57 88.73 41.34Q88.50 41.11 88.50 40.78L88.50 38.21Q88.50 36.62 87.71 35.63Q86.92 34.64 85.60 34.64Q84.34 34.64 83.55 35.63Q82.76 36.62 82.76 38.21L82.76 59.59Q82.76 61.18 83.55 62.17Q84.34 63.16 85.60 63.16Q86.92 63.16 87.71 62.17Q88.50 61.18 88.50 59.59L88.50 55.37Q88.50 55.04 88.17 55.04L86.45 55.04Q86.12 55.04 85.89 54.81Q85.66 54.58 85.66 54.25L85.66 47.25Q85.66 46.92 85.89 46.69Q86.12 46.46 86.45 46.46L98.66 46.46Q98.99 46.46 99.22 46.69Q99.46 46.92 99.46 47.25L99.46 59.53Q99.46 65.47 95.66 69Q91.87 72.53 85.60 72.53 M129.22 34.38Q129.22 34.71 128.99 34.94Q128.76 35.17 128.43 35.17L115.16 35.17Q114.83 35.17 114.83 35.50L114.83 43.82Q114.83 44.15 115.16 44.15L122.42 44.15Q122.75 44.15 122.98 44.38Q123.22 44.61 123.22 44.94L123.22 52.79Q123.22 53.12 122.98 53.36Q122.75 53.59 122.42 53.59L115.16 53.59Q114.83 53.59 114.83 53.92L114.83 62.30Q114.83 62.63 115.16 62.63L128.43 62.63Q128.76 62.63 128.99 62.86Q129.22 63.09 129.22 63.42L129.22 71.21Q129.22 71.54 128.99 71.77Q128.76 72 128.43 72L104.67 72Q104.34 72 104.11 71.77Q103.88 71.54 103.88 71.21L103.88 26.59Q103.88 26.26 104.11 26.03Q104.34 25.80 104.67 25.80L128.43 25.80Q128.76 25.80 128.99 26.03Q129.22 26.26 129.22 26.59 M151.33 72Q150.61 72 150.41 71.34L145.92 53.85Q145.85 53.59 145.59 53.59L144.60 53.59Q144.27 53.59 144.27 53.92L144.27 71.21Q144.27 71.54 144.04 71.77Q143.81 72 143.48 72L134.11 72Q133.78 72 133.54 71.77Q133.31 71.54 133.31 71.21L133.31 26.59Q133.31 26.26 133.54 26.03Q133.78 25.80 134.11 25.80L148.30 25.80Q152.12 25.80 155.09 27.61Q158.06 29.43 159.68 32.70Q161.30 35.96 161.30 40.12Q161.30 43.82 159.94 46.75Q158.59 49.69 156.15 51.47Q156.02 51.54 155.95 51.64Q155.89 51.74 155.95 51.87L161.63 71.08L161.69 71.34Q161.69 72 160.97 72L151.33 72M144.60 35.17Q144.27 35.17 144.27 35.50L144.27 44.87Q144.27 45.20 144.60 45.20L146.45 45.20Q148.23 45.20 149.29 43.88Q150.34 42.56 150.34 40.25Q150.34 37.81 149.29 36.49Q148.23 35.17 146.45 35.17 M178.26 72.53Q174.23 72.53 171.20 70.98Q168.16 69.43 166.48 66.62Q164.80 63.82 164.80 60.25L164.80 58.21Q164.80 57.88 165.03 57.64Q165.26 57.41 165.59 57.41L174.83 57.41Q175.16 57.41 175.39 57.64Q175.62 57.88 175.62 58.21L175.62 59.72Q175.62 61.31 176.38 62.23Q177.14 63.16 178.33 63.16Q179.51 63.16 180.27 62.27Q181.03 61.37 181.03 59.99Q181.03 58.47 179.84 57.25Q178.66 56.03 175.09 53.45Q171.79 51.08 169.68 49.20Q167.57 47.32 166.05 44.51Q164.53 41.71 164.53 38.01Q164.53 34.25 166.21 31.34Q167.90 28.44 170.97 26.86Q174.04 25.27 178 25.27Q182.02 25.27 185.09 26.89Q188.16 28.51 189.84 31.44Q191.53 34.38 191.53 38.21L191.53 39.79Q191.53 40.12 191.29 40.35Q191.06 40.58 190.73 40.58L181.56 40.58Q181.23 40.58 181 40.35Q180.77 40.12 180.77 39.79L180.77 37.94Q180.77 36.49 179.98 35.57Q179.18 34.64 178 34.64Q176.81 34.64 176.08 35.57Q175.36 36.49 175.36 38.01Q175.36 39.66 176.48 40.98Q177.60 42.30 181.03 44.81Q185.19 47.91 187.30 49.82Q189.41 51.74 190.60 54.08Q191.79 56.42 191.79 59.59Q191.79 65.53 188.06 69.03Q184.33 72.53 178.26 72.53  M225.58 26.59Q225.58 26.26 225.81 26.03Q226.04 25.80 226.37 25.80L235.75 25.80Q236.08 25.80 236.31 26.03Q236.54 26.26 236.54 26.59L236.54 71.21Q236.54 71.54 236.31 71.77Q236.08 72 235.75 72L226.37 72Q226.04 72 225.81 71.77Q225.58 71.54 225.58 71.21L225.58 53.92Q225.58 53.59 225.25 53.59L220.50 53.59Q220.17 53.59 220.17 53.92L220.17 71.21Q220.17 71.54 219.94 71.77Q219.71 72 219.38 72L210.01 72Q209.68 72 209.44 71.77Q209.21 71.54 209.21 71.21L209.21 26.59Q209.21 26.26 209.44 26.03Q209.68 25.80 210.01 25.80L219.38 25.80Q219.71 25.80 219.94 26.03Q220.17 26.26 220.17 26.59L220.17 43.82Q220.17 44.15 220.50 44.15L225.25 44.15Q225.58 44.15 225.58 43.82 M250.60 71.87Q250.27 71.87 250.03 71.64Q249.80 71.41 249.80 71.08L249.80 54.84L249.74 54.44L240.50 26.72Q240.43 26.59 240.43 26.39Q240.43 25.80 241.09 25.80L250.99 25.80Q251.65 25.80 251.85 26.53L255.15 41.05Q255.22 41.31 255.35 41.31Q255.48 41.31 255.55 41.05L258.85 26.53Q259.04 25.80 259.70 25.80L269.60 25.80Q270 25.80 270.17 26.03Q270.33 26.26 270.20 26.72L260.83 54.44L260.76 54.84L260.76 71.08Q260.76 71.41 260.53 71.64Q260.30 71.87 259.97 71.87 M275.02 72Q274.69 72 274.45 71.77Q274.22 71.54 274.22 71.21L274.22 26.59Q274.22 26.26 274.45 26.03Q274.69 25.80 275.02 25.80L287.62 25.80Q293.96 25.80 297.79 29.36Q301.61 32.93 301.61 38.80L301.61 59Q301.61 64.87 297.79 68.44Q293.96 72 287.62 72L275.02 72M285.18 62.30Q285.18 62.63 285.51 62.63L287.36 62.56Q288.74 62.50 289.67 61.34Q290.59 60.19 290.66 58.27L290.66 39.53Q290.66 37.55 289.73 36.36Q288.81 35.17 287.29 35.17L285.51 35.17Q285.18 35.17 285.18 35.50 M324.25 72Q323.53 72 323.33 71.34L318.84 53.85Q318.77 53.59 318.51 53.59L317.52 53.59Q317.19 53.59 317.19 53.92L317.19 71.21Q317.19 71.54 316.96 71.77Q316.73 72 316.40 72L307.03 72Q306.70 72 306.46 71.77Q306.23 71.54 306.23 71.21L306.23 26.59Q306.23 26.26 306.46 26.03Q306.70 25.80 307.03 25.80L321.22 25.80Q325.04 25.80 328.01 27.61Q330.98 29.43 332.60 32.70Q334.22 35.96 334.22 40.12Q334.22 43.82 332.87 46.75Q331.51 49.69 329.07 51.47Q328.94 51.54 328.87 51.64Q328.81 51.74 328.87 51.87L334.55 71.08L334.61 71.34Q334.61 72 333.89 72L324.25 72M317.52 35.17Q317.19 35.17 317.19 35.50L317.19 44.87Q317.19 45.20 317.52 45.20L319.37 45.20Q321.15 45.20 322.21 43.88Q323.26 42.56 323.26 40.25Q323.26 37.81 322.21 36.49Q321.15 35.17 319.37 35.17 M358.31 72Q357.52 72 357.45 71.27L356.59 65.53Q356.59 65.20 356.20 65.20L349.07 65.20Q348.67 65.20 348.67 65.53L347.88 71.27Q347.81 72 347.02 72L337.65 72Q336.79 72 336.99 71.14L346.56 26.53Q346.69 25.80 347.42 25.80L358.18 25.80Q358.90 25.80 359.03 26.53L368.54 71.14L368.60 71.41Q368.60 72 367.88 72L358.31 72M350.12 56.42Q350.12 56.75 350.39 56.75L354.81 56.75Q355.07 56.75 355.07 56.42L352.70 41.38Q352.63 41.11 352.50 41.11Q352.37 41.11 352.30 41.38 M385.70 72.53Q381.61 72.53 378.50 70.78Q375.40 69.03 373.69 65.86Q371.97 62.69 371.97 58.54L371.97 26.59Q371.97 26.26 372.20 26.03Q372.43 25.80 372.76 25.80L382.13 25.80Q382.46 25.80 382.69 26.03Q382.93 26.26 382.93 26.59L382.93 59.59Q382.93 61.18 383.69 62.17Q384.44 63.16 385.70 63.16Q386.95 63.16 387.71 62.17Q388.47 61.18 388.47 59.59L388.47 26.59Q388.47 26.26 388.70 26.03Q388.93 25.80 389.26 25.80L398.63 25.80Q398.96 25.80 399.19 26.03Q399.43 26.26 399.43 26.59L399.43 58.54Q399.43 62.69 397.71 65.86Q395.99 69.03 392.89 70.78Q389.79 72.53 385.70 72.53 M404.97 72Q404.64 72 404.41 71.77Q404.18 71.54 404.18 71.21L404.18 26.59Q404.18 26.26 404.41 26.03Q404.64 25.80 404.97 25.80L414.34 25.80Q414.67 25.80 414.90 26.03Q415.13 26.26 415.13 26.59L415.13 62.30Q415.13 62.63 415.46 62.63L428.93 62.63Q429.26 62.63 429.49 62.86Q429.72 63.09 429.72 63.42L429.72 71.21Q429.72 71.54 429.49 71.77Q429.26 72 428.93 72 M434.14 72Q433.81 72 433.58 71.77Q433.35 71.54 433.35 71.21L433.35 26.59Q433.35 26.26 433.58 26.03Q433.81 25.80 434.14 25.80L443.51 25.80Q443.84 25.80 444.08 26.03Q444.31 26.26 444.31 26.59L444.31 71.21Q444.31 71.54 444.08 71.77Q443.84 72 443.51 72 M462.46 72.53Q456.19 72.53 452.42 68.83Q448.66 65.14 448.66 59L448.66 38.74Q448.66 32.53 452.42 28.90Q456.19 25.27 462.46 25.27Q468.73 25.27 472.52 28.90Q476.32 32.53 476.32 38.74L476.32 39.33Q476.32 39.66 476.08 39.89Q475.85 40.12 475.52 40.12L466.15 40.52Q465.36 40.52 465.36 39.73L465.36 37.94Q465.36 36.43 464.57 35.53Q463.78 34.64 462.46 34.64Q461.20 34.64 460.41 35.53Q459.62 36.43 459.62 37.94L459.62 59.92Q459.62 61.37 460.41 62.27Q461.20 63.16 462.46 63.16Q463.78 63.16 464.57 62.27Q465.36 61.37 465.36 59.92L465.36 58.01Q465.36 57.68 465.59 57.45Q465.82 57.22 466.15 57.22L475.52 57.61Q475.85 57.61 476.08 57.84Q476.32 58.07 476.32 58.40L476.32 59Q476.32 65.14 472.52 68.83Q468.73 72.53 462.46 72.53" fill="#1E2329"/>
    <path d="M15.06 85.76Q15.06 85.86 14.99 85.93Q14.92 86 14.82 86L10.50 86Q10.40 86 10.40 86.10L10.40 89.88Q10.40 89.98 10.50 89.98L13.06 89.98Q13.16 89.98 13.23 90.05Q13.30 90.12 13.30 90.22L13.30 91.76Q13.30 91.86 13.23 91.93Q13.16 92 13.06 92L10.50 92Q10.40 92 10.40 92.10L10.40 95.90Q10.40 96 10.50 96L14.82 96Q14.92 96 14.99 96.07Q15.06 96.14 15.06 96.24L15.06 97.76Q15.06 97.86 14.99 97.93Q14.92 98 14.82 98L8.32 98Q8.22 98 8.15 97.93Q8.08 97.86 8.08 97.76L8.08 84.24Q8.08 84.14 8.15 84.07Q8.22 84 8.32 84L14.82 84Q14.92 84 14.99 84.07Q15.06 84.14 15.06 84.24 M27.04 83.84Q28.72 83.84 29.74 84.92Q30.76 86 30.76 87.74L30.76 94.26Q30.76 95.64 30.10 96.63Q29.44 97.62 28.28 97.98Q28.20 98 28.20 98.08L28.20 99.84Q28.20 99.94 28.13 100.01Q28.06 100.08 27.96 100.08L26.12 100.08Q26.02 100.08 25.95 100.01Q25.88 99.94 25.88 99.84L25.88 98.08Q25.88 98 25.80 97.98Q24.66 97.60 24 96.62Q23.34 95.64 23.34 94.26L23.34 87.74Q23.34 86 24.36 84.92Q25.38 83.84 27.04 83.84M28.44 94.50L28.44 87.50Q28.44 86.76 28.05 86.30Q27.66 85.84 27.04 85.84Q26.42 85.84 26.04 86.30Q25.66 86.76 25.66 87.50L25.66 94.50Q25.66 95.24 26.04 95.70Q26.42 96.16 27.04 96.16Q27.66 96.16 28.05 95.70Q28.44 95.24 28.44 94.50 M43.18 98.16Q41.46 98.16 40.43 97.05Q39.40 95.94 39.40 94.12L39.40 84.24Q39.40 84.14 39.47 84.07Q39.54 84 39.64 84L41.48 84Q41.58 84 41.65 84.07Q41.72 84.14 41.72 84.24L41.72 94.36Q41.72 95.16 42.12 95.66Q42.52 96.16 43.18 96.16Q43.84 96.16 44.24 95.66Q44.64 95.16 44.64 94.36L44.64 84.24Q44.64 84.14 44.71 84.07Q44.78 84 44.88 84L46.72 84Q46.82 84 46.89 84.07Q46.96 84.14 46.96 84.24L46.96 94.12Q46.96 95.94 45.92 97.05Q44.88 98.16 43.18 98.16 M56.08 98Q55.98 98 55.91 97.93Q55.84 97.86 55.84 97.76L55.84 84.24Q55.84 84.14 55.91 84.07Q55.98 84 56.08 84L57.92 84Q58.02 84 58.09 84.07Q58.16 84.14 58.16 84.24L58.16 97.76Q58.16 97.86 58.09 97.93Q58.02 98 57.92 98 M71.10 83.98Q72.16 83.98 72.97 84.50Q73.78 85.02 74.23 85.96Q74.68 86.90 74.68 88.10Q74.68 89.90 73.73 91Q72.78 92.10 71.22 92.10L69.52 92.10Q69.42 92.10 69.42 92.20L69.42 97.76Q69.42 97.86 69.35 97.93Q69.28 98 69.18 98L67.34 98Q67.24 98 67.17 97.93Q67.10 97.86 67.10 97.76L67.10 84.22Q67.10 84.12 67.17 84.05Q67.24 83.98 67.34 83.98L71.10 83.98M70.72 90.28Q71.46 90.28 71.91 89.71Q72.36 89.14 72.36 88.16Q72.36 87.16 71.91 86.57Q71.46 85.98 70.72 85.98L69.52 85.98Q69.42 85.98 69.42 86.08L69.42 90.18Q69.42 90.28 69.52 90.28 M89.34 84.16Q89.44 84 89.64 84L91.48 84Q91.58 84 91.65 84.07Q91.72 84.14 91.72 84.24L91.72 97.76Q91.72 97.86 91.65 97.93Q91.58 98 91.48 98L89.64 98Q89.54 98 89.47 97.93Q89.40 97.86 89.40 97.76L89.40 88.32Q89.40 88.24 89.36 88.24Q89.32 88.24 89.28 88.30L87.54 91.46Q87.44 91.62 87.36 91.62Q87.28 91.62 87.18 91.46L85.44 88.30Q85.40 88.24 85.36 88.24Q85.32 88.24 85.32 88.32L85.32 97.76Q85.32 97.86 85.25 97.93Q85.18 98 85.08 98L83.24 98Q83.14 98 83.07 97.93Q83 97.86 83 97.76L83 84.24Q83 84.14 83.07 84.07Q83.14 84 83.24 84L85.08 84Q85.28 84 85.38 84.16L87.32 87.58Q87.38 87.66 87.44 87.58 M107.60 85.76Q107.60 85.86 107.53 85.93Q107.46 86 107.36 86L103.04 86Q102.94 86 102.94 86.10L102.94 89.88Q102.94 89.98 103.04 89.98L105.60 89.98Q105.70 89.98 105.77 90.05Q105.84 90.12 105.84 90.22L105.84 91.76Q105.84 91.86 105.77 91.93Q105.70 92 105.60 92L103.04 92Q102.94 92 102.94 92.10L102.94 95.90Q102.94 96 103.04 96L107.36 96Q107.46 96 107.53 96.07Q107.60 96.14 107.60 96.24L107.60 97.76Q107.60 97.86 107.53 97.93Q107.46 98 107.36 98L100.86 98Q100.76 98 100.69 97.93Q100.62 97.86 100.62 97.76L100.62 84.24Q100.62 84.14 100.69 84.07Q100.76 84 100.86 84L107.36 84Q107.46 84 107.53 84.07Q107.60 84.14 107.60 84.24 M121.80 84.24Q121.80 84.14 121.87 84.07Q121.94 84 122.04 84L123.86 84Q123.96 84 124.03 84.07Q124.10 84.14 124.10 84.24L124.10 97.76Q124.10 97.86 124.03 97.93Q123.96 98 123.86 98L121.76 98Q121.56 98 121.50 97.80L118.52 89.32Q118.50 89.26 118.45 89.27Q118.40 89.28 118.40 89.34L118.42 97.76Q118.42 97.86 118.35 97.93Q118.28 98 118.18 98L116.36 98Q116.26 98 116.19 97.93Q116.12 97.86 116.12 97.76L116.12 84.24Q116.12 84.14 116.19 84.07Q116.26 84 116.36 84L118.42 84Q118.62 84 118.68 84.20L121.68 92.62Q121.70 92.68 121.75 92.67Q121.80 92.66 121.80 92.60 M140.24 84Q140.34 84 140.41 84.07Q140.48 84.14 140.48 84.24L140.48 85.76Q140.48 85.86 140.41 85.93Q140.34 86 140.24 86L137.70 86Q137.60 86 137.60 86.10L137.60 97.76Q137.60 97.86 137.53 97.93Q137.46 98 137.36 98L135.52 98Q135.42 98 135.35 97.93Q135.28 97.86 135.28 97.76L135.28 86.10Q135.28 86 135.18 86L132.78 86Q132.68 86 132.61 85.93Q132.54 85.86 132.54 85.76L132.54 84.24Q132.54 84.14 132.61 84.07Q132.68 84 132.78 84  M163 98.16Q161.34 98.16 160.32 97.16Q159.30 96.16 159.30 94.54L159.30 94.02Q159.30 93.92 159.37 93.85Q159.44 93.78 159.54 93.78L161.36 93.78Q161.46 93.78 161.53 93.85Q161.60 93.92 161.60 94.02L161.60 94.42Q161.60 95.20 161.99 95.68Q162.38 96.16 163 96.16Q163.62 96.16 164.02 95.71Q164.42 95.26 164.42 94.52Q164.42 94 164.20 93.62Q163.98 93.24 163.58 92.90Q163.18 92.56 162.30 91.92Q161.30 91.20 160.69 90.64Q160.08 90.08 159.67 89.29Q159.26 88.50 159.26 87.46Q159.26 85.80 160.26 84.82Q161.26 83.84 162.90 83.84Q164.56 83.84 165.58 84.87Q166.60 85.90 166.60 87.60L166.60 88.08Q166.60 88.18 166.53 88.25Q166.46 88.32 166.36 88.32L164.56 88.32Q164.46 88.32 164.39 88.25Q164.32 88.18 164.32 88.08L164.32 87.56Q164.32 86.78 163.93 86.31Q163.54 85.84 162.90 85.84Q162.30 85.84 161.92 86.27Q161.54 86.70 161.54 87.46Q161.54 88.18 161.95 88.68Q162.36 89.18 163.56 90.06Q164.78 90.96 165.40 91.53Q166.02 92.10 166.36 92.78Q166.70 93.46 166.70 94.40Q166.70 96.10 165.68 97.13Q164.66 98.16 163 98.16 M182.16 85.76Q182.16 85.86 182.09 85.93Q182.02 86 181.92 86L177.60 86Q177.50 86 177.50 86.10L177.50 89.88Q177.50 89.98 177.60 89.98L180.16 89.98Q180.26 89.98 180.33 90.05Q180.40 90.12 180.40 90.22L180.40 91.76Q180.40 91.86 180.33 91.93Q180.26 92 180.16 92L177.60 92Q177.50 92 177.50 92.10L177.50 95.90Q177.50 96 177.60 96L181.92 96Q182.02 96 182.09 96.07Q182.16 96.14 182.16 96.24L182.16 97.76Q182.16 97.86 182.09 97.93Q182.02 98 181.92 98L175.42 98Q175.32 98 175.25 97.93Q175.18 97.86 175.18 97.76L175.18 84.24Q175.18 84.14 175.25 84.07Q175.32 84 175.42 84L181.92 84Q182.02 84 182.09 84.07Q182.16 84.14 182.16 84.24 M196.22 98Q196.02 98 195.96 97.80L194.26 92.06Q194.22 91.98 194.16 91.98L193.10 91.98Q193 91.98 193 92.08L193 97.76Q193 97.86 192.93 97.93Q192.86 98 192.76 98L190.92 98Q190.82 98 190.75 97.93Q190.68 97.86 190.68 97.76L190.68 84.24Q190.68 84.14 190.75 84.07Q190.82 84 190.92 84L194.68 84Q195.74 84 196.55 84.51Q197.36 85.02 197.81 85.95Q198.26 86.88 198.26 88.08Q198.26 89.32 197.78 90.22Q197.30 91.12 196.44 91.58Q196.36 91.60 196.38 91.70L198.34 97.72Q198.36 97.76 198.36 97.82Q198.36 98 198.14 98L196.22 98M193.10 86Q193 86 193 86.10L193 90.08Q193 90.18 193.10 90.18L194.32 90.18Q195.04 90.18 195.49 89.62Q195.94 89.06 195.94 88.10Q195.94 87.14 195.49 86.57Q195.04 86 194.32 86 M209.30 98Q209.08 98 209.04 97.78L206.18 84.26L206.16 84.18Q206.16 84 206.38 84L208.40 84Q208.64 84 208.66 84.22L210.32 93.84Q210.34 93.90 210.38 93.90Q210.42 93.90 210.44 93.84L212.06 84.22Q212.08 84 212.32 84L214.28 84Q214.54 84 214.48 84.26L211.60 97.78Q211.56 98 211.34 98 M223.16 98Q223.06 98 222.99 97.93Q222.92 97.86 222.92 97.76L222.92 84.24Q222.92 84.14 222.99 84.07Q223.06 84 223.16 84L225 84Q225.10 84 225.17 84.07Q225.24 84.14 225.24 84.24L225.24 97.76Q225.24 97.86 225.17 97.93Q225.10 98 225 98 M237.72 98.16Q236.02 98.16 234.99 97.13Q233.96 96.10 233.96 94.40L233.96 87.58Q233.96 85.86 234.99 84.85Q236.02 83.84 237.72 83.84Q239.44 83.84 240.48 84.85Q241.52 85.86 241.52 87.58L241.52 87.82Q241.52 87.92 241.45 88Q241.38 88.08 241.28 88.08L239.42 88.16Q239.18 88.16 239.18 87.92L239.18 87.42Q239.18 86.72 238.78 86.28Q238.38 85.84 237.72 85.84Q237.08 85.84 236.68 86.28Q236.28 86.72 236.28 87.42L236.28 94.58Q236.28 95.28 236.68 95.72Q237.08 96.16 237.72 96.16Q238.38 96.16 238.78 95.72Q239.18 95.28 239.18 94.58L239.18 94.08Q239.18 93.98 239.25 93.91Q239.32 93.84 239.42 93.84L241.28 93.92Q241.38 93.92 241.45 93.99Q241.52 94.06 241.52 94.16L241.52 94.40Q241.52 96.10 240.48 97.13Q239.44 98.16 237.72 98.16 M257.12 85.76Q257.12 85.86 257.05 85.93Q256.98 86 256.88 86L252.56 86Q252.46 86 252.46 86.10L252.46 89.88Q252.46 89.98 252.56 89.98L255.12 89.98Q255.22 89.98 255.29 90.05Q255.36 90.12 255.36 90.22L255.36 91.76Q255.36 91.86 255.29 91.93Q255.22 92 255.12 92L252.56 92Q252.46 92 252.46 92.10L252.46 95.90Q252.46 96 252.56 96L256.88 96Q256.98 96 257.05 96.07Q257.12 96.14 257.12 96.24L257.12 97.76Q257.12 97.86 257.05 97.93Q256.98 98 256.88 98L250.38 98Q250.28 98 250.21 97.93Q250.14 97.86 250.14 97.76L250.14 84.24Q250.14 84.14 250.21 84.07Q250.28 84 250.38 84L256.88 84Q256.98 84 257.05 84.07Q257.12 84.14 257.12 84.24 M268.94 98.16Q267.28 98.16 266.26 97.16Q265.24 96.16 265.24 94.54L265.24 94.02Q265.24 93.92 265.31 93.85Q265.38 93.78 265.48 93.78L267.30 93.78Q267.40 93.78 267.47 93.85Q267.54 93.92 267.54 94.02L267.54 94.42Q267.54 95.20 267.93 95.68Q268.32 96.16 268.94 96.16Q269.56 96.16 269.96 95.71Q270.36 95.26 270.36 94.52Q270.36 94 270.14 93.62Q269.92 93.24 269.52 92.90Q269.12 92.56 268.24 91.92Q267.24 91.20 266.63 90.64Q266.02 90.08 265.61 89.29Q265.20 88.50 265.20 87.46Q265.20 85.80 266.20 84.82Q267.20 83.84 268.84 83.84Q270.50 83.84 271.52 84.87Q272.54 85.90 272.54 87.60L272.54 88.08Q272.54 88.18 272.47 88.25Q272.40 88.32 272.30 88.32L270.50 88.32Q270.40 88.32 270.33 88.25Q270.26 88.18 270.26 88.08L270.26 87.56Q270.26 86.78 269.87 86.31Q269.48 85.84 268.84 85.84Q268.24 85.84 267.86 86.27Q267.48 86.70 267.48 87.46Q267.48 88.18 267.89 88.68Q268.30 89.18 269.50 90.06Q270.72 90.96 271.34 91.53Q271.96 92.10 272.30 92.78Q272.64 93.46 272.64 94.40Q272.64 96.10 271.62 97.13Q270.60 98.16 268.94 98.16" fill="#6B7280"/>
    <rect x="7" y="108" width="58" height="4" rx="2" fill="#D3FF00"/>
</svg>
